999
dxflib 2.2.0.0
  0
SECTION
  2
HEADER
  9
$ACADVER
  1
AC1015
  9
$HANDSEED
  5
FFFF
  9
$DIMASZ
 40
2.5
  9
$PLIMMIN
 10
0.0
 20
0.0
  9
$DIMEXE
 40
1.25
  9
$DIMGAP
 40
0.625
  9
$PLIMMAX
 10
210.0
 20
297.0
  9
$INSUNITS
 70
4
  9
$DIMEXO
 40
0.625
  9
$DIMTXT
 40
2.5
  0
ENDSEC
  0
SECTION
  2
TABLES
  0
TABLE
  2
VPORT
  5
8
100
AcDbSymbolTable
 70
1
  0
VPORT
  5
30
100
AcDbSymbolTableRecord
100
AcDbViewportTableRecord
  2
*Active
 70
0
 10
0.0
 20
0.0
 11
1.0
 21
1.0
 12
286.3055555555554861
 22
148.5
 13
0.0
 23
0.0
 14
10.0
 24
10.0
 15
10.0
 25
10.0
 16
0.0
 26
0.0
 36
1.0
 17
0.0
 27
0.0
 37
0.0
 40
297.0
 41
1.92798353909465
 42
50.0
 43
0.0
 44
0.0
 50
0.0
 51
0.0
 71
0
 72
100
 73
1
 74
3
 75
1
 76
1
 77
0
 78
0
281
0
 65
1
110
0.0
120
0.0
130
0.0
111
1.0
121
0.0
131
0.0
112
0.0
122
1.0
132
0.0
 79
0
146
0.0
  0
ENDTAB
  0
TABLE
  2
LTYPE
  5
5
100
AcDbSymbolTable
 70
21
  0
LTYPE
  5
14
100
AcDbSymbolTableRecord
100
AcDbLinetypeTableRecord
  2
ByBlock
 70
0
  3

 72
65
 73
0
 40
0.0
  0
LTYPE
  5
15
100
AcDbSymbolTableRecord
100
AcDbLinetypeTableRecord
  2
ByLayer
 70
0
  3

 72
65
 73
0
 40
0.0
  0
LTYPE
  5
16
100
AcDbSymbolTableRecord
100
AcDbLinetypeTableRecord
  2
CONTINUOUS
 70
0
  3
Solid line
 72
65
 73
0
 40
0.0
  0
LTYPE
  5
31
100
AcDbSymbolTableRecord
100
AcDbLinetypeTableRecord
  2
DOT
 70
0
  3
Dot . . . . . . . . . . . . . . . . . . . . . .
 72
65
 73
2
 40
6.3499999999999996
 49
0.0
 74
0
 49
-6.3499999999999996
 74
0
  0
LTYPE
  5
32
100
AcDbSymbolTableRecord
100
AcDbLinetypeTableRecord
  2
DOT2
 70
0
  3
Dot (.5x) .....................................
 72
65
 73
2
 40
3.1749999999999998
 49
0.0
 74
0
 49
-3.1749999999999998
 74
0
  0
LTYPE
  5
33
100
AcDbSymbolTableRecord
100
AcDbLinetypeTableRecord
  2
DOTX2
 70
0
  3
Dot (2x) .  .  .  .  .  .  .  .  .  .  .  .  .
 72
65
 73
2
 40
12.6999999999999993
 49
0.0
 74
0
 49
-12.6999999999999993
 74
0
  0
LTYPE
  5
34
100
AcDbSymbolTableRecord
100
AcDbLinetypeTableRecord
  2
DASHED
 70
0
  3
Dashed __ __ __ __ __ __ __ __ __ __ __ __ __ _
 72
65
 73
2
 40
19.0500000000000007
 49
12.6999999999999993
 74
0
 49
-6.3499999999999996
 74
0
  0
LTYPE
  5
35
100
AcDbSymbolTableRecord
100
AcDbLinetypeTableRecord
  2
DASHED2
 70
0
  3
Dashed (.5x) _ _ _ _ _ _ _ _ _ _ _ _ _ _ _ _ _
 72
65
 73
2
 40
9.5250000000000004
 49
6.3499999999999996
 74
0
 49
-3.1749999999999998
 74
0
  0
LTYPE
  5
36
100
AcDbSymbolTableRecord
100
AcDbLinetypeTableRecord
  2
DASHEDX2
 70
0
  3
Dashed (2x) ____  ____  ____  ____  ____  ___
 72
65
 73
2
 40
38.1000000000000014
 49
25.3999999999999986
 74
0
 49
-12.6999999999999993
 74
0
  0
LTYPE
  5
37
100
AcDbSymbolTableRecord
100
AcDbLinetypeTableRecord
  2
DASHDOT
 70
0
  3
Dash dot __ . __ . __ . __ . __ . __ . __ . __
 72
65
 73
4
 40
25.3999999999999986
 49
12.6999999999999993
 74
0
 49
-6.3499999999999996
 74
0
 49
0.0
 74
0
 49
-6.3499999999999996
 74
0
  0
LTYPE
  5
38
100
AcDbSymbolTableRecord
100
AcDbLinetypeTableRecord
  2
DASHDOT2
 70
0
  3
Dash dot (.5x) _._._._._._._._._._._._._._._.
 72
65
 73
4
 40
12.6999999999999993
 49
6.3499999999999996
 74
0
 49
-3.1749999999999998
 74
0
 49
0.0
 74
0
 49
-3.1749999999999998
 74
0
  0
LTYPE
  5
39
100
AcDbSymbolTableRecord
100
AcDbLinetypeTableRecord
  2
DASHDOTX2
 70
0
  3
Dash dot (2x) ____  .  ____  .  ____  .  ___
 72
65
 73
4
 40
50.7999999999999972
 49
25.3999999999999986
 74
0
 49
-12.6999999999999993
 74
0
 49
0.0
 74
0
 49
-12.6999999999999993
 74
0
  0
LTYPE
  5
3A
100
AcDbSymbolTableRecord
100
AcDbLinetypeTableRecord
  2
DIVIDE
 70
0
  3
Divide ____ . . ____ . . ____ . . ____ . . ____
 72
65
 73
6
 40
31.75
 49
12.6999999999999993
 74
0
 49
-6.3499999999999996
 74
0
 49
0.0
 74
0
 49
-6.3499999999999996
 74
0
 49
0.0
 74
0
 49
-6.3499999999999996
 74
0
  0
LTYPE
  5
3B
100
AcDbSymbolTableRecord
100
AcDbLinetypeTableRecord
  2
DIVIDE2
 70
0
  3
Divide (.5x) __..__..__..__..__..__..__..__.._
 72
65
 73
6
 40
15.875
 49
6.3499999999999996
 74
0
 49
-3.1749999999999998
 74
0
 49
0.0
 74
0
 49
-3.1749999999999998
 74
0
 49
0.0
 74
0
 49
-3.1749999999999998
 74
0
  0
LTYPE
  5
3C
100
AcDbSymbolTableRecord
100
AcDbLinetypeTableRecord
  2
DIVIDEX2
 70
0
  3
Divide (2x) ________  .  .  ________  .  .  _
 72
65
 73
6
 40
63.5
 49
25.3999999999999986
 74
0
 49
-12.6999999999999993
 74
0
 49
0.0
 74
0
 49
-12.6999999999999993
 74
0
 49
0.0
 74
0
 49
-12.6999999999999993
 74
0
  0
LTYPE
  5
3D
100
AcDbSymbolTableRecord
100
AcDbLinetypeTableRecord
  2
CENTER
 70
0
  3
Center ____ _ ____ _ ____ _ ____ _ ____ _ ____
 72
65
 73
4
 40
50.7999999999999972
 49
31.75
 74
0
 49
-6.3499999999999996
 74
0
 49
6.3499999999999996
 74
0
 49
-6.3499999999999996
 74
0
  0
LTYPE
  5
3E
100
AcDbSymbolTableRecord
100
AcDbLinetypeTableRecord
  2
CENTER2
 70
0
  3
Center (.5x) ___ _ ___ _ ___ _ ___ _ ___ _ ___
 72
65
 73
4
 40
28.5749999999999993
 49
19.0500000000000007
 74
0
 49
-3.1749999999999998
 74
0
 49
3.1749999999999998
 74
0
 49
-3.1749999999999998
 74
0
  0
LTYPE
  5
3F
100
AcDbSymbolTableRecord
100
AcDbLinetypeTableRecord
  2
CENTERX2
 70
0
  3
Center (2x) ________  __  ________  __  _____
 72
65
 73
4
 40
101.5999999999999943
 49
63.5
 74
0
 49
-12.6999999999999993
 74
0
 49
12.6999999999999993
 74
0
 49
-12.6999999999999993
 74
0
  0
LTYPE
  5
40
100
AcDbSymbolTableRecord
100
AcDbLinetypeTableRecord
  2
BORDER
 70
0
  3
Border __ __ . __ __ . __ __ . __ __ . __ __ .
 72
65
 73
6
 40
44.4500000000000028
 49
12.6999999999999993
 74
0
 49
-6.3499999999999996
 74
0
 49
12.6999999999999993
 74
0
 49
-6.3499999999999996
 74
0
 49
0.0
 74
0
 49
-6.3499999999999996
 74
0
  0
LTYPE
  5
41
100
AcDbSymbolTableRecord
100
AcDbLinetypeTableRecord
  2
BORDER2
 70
0
  3
Border (.5x) __.__.__.__.__.__.__.__.__.__.__.
 72
65
 73
6
 40
22.2250000000000014
 49
6.3499999999999996
 74
0
 49
-3.1749999999999998
 74
0
 49
6.3499999999999996
 74
0
 49
-3.1749999999999998
 74
0
 49
0.0
 74
0
 49
-3.1749999999999998
 74
0
  0
LTYPE
  5
42
100
AcDbSymbolTableRecord
100
AcDbLinetypeTableRecord
  2
BORDERX2
 70
0
  3
Border (2x) ____  ____  .  ____  ____  .  ___
 72
65
 73
6
 40
88.9000000000000057
 49
25.3999999999999986
 74
0
 49
-12.6999999999999993
 74
0
 49
25.3999999999999986
 74
0
 49
-12.6999999999999993
 74
0
 49
0.0
 74
0
 49
-12.6999999999999993
 74
0
  0
ENDTAB
  0
TABLE
  2
LAYER
  5
2
100
AcDbSymbolTable
 70
3
  0
LAYER
  5
10
100
AcDbSymbolTableRecord
100
AcDbLayerTableRecord
  2
0
 70
0
 62
7
  6
CONTINUOUS
370
0
390
F
  0
LAYER
  5
43
100
AcDbSymbolTableRecord
100
AcDbLayerTableRecord
  2
part_layer
 70
0
 62
4
  6
CONTINUOUS
370
0
390
F
  0
LAYER
  5
44
100
AcDbSymbolTableRecord
100
AcDbLayerTableRecord
  2
TitleBlock
 70
0
 62
3
  6
CONTINUOUS
370
0
390
F
  0
ENDTAB
  0
TABLE
  2
STYLE
  5
3
100
AcDbSymbolTable
 70
1
  0
STYLE
  5
11
100
AcDbSymbolTableRecord
100
AcDbTextStyleTableRecord
  2
Standard
 70
0
 40
0.0
 41
0.75
 50
0.0
 71
0
 42
2.5
  3
txt
  4

  0
ENDTAB
  0
TABLE
  2
VIEW
  5
6
100
AcDbSymbolTable
 70
0
  0
ENDTAB
  0
TABLE
  2
UCS
  5
7
100
AcDbSymbolTable
 70
0
  0
ENDTAB
  0
TABLE
  2
APPID
  5
9
100
AcDbSymbolTable
 70
1
  0
APPID
  5
12
100
AcDbSymbolTableRecord
100
AcDbRegAppTableRecord
  2
ACAD
 70
0
  0
ENDTAB
  0
TABLE
  2
DIMSTYLE
  5
A
100
AcDbSymbolTable
 70
1
100
AcDbDimStyleTable
 71
0
  0
DIMSTYLE
105
27
100
AcDbSymbolTableRecord
100
AcDbDimStyleTableRecord
  2
Standard
 41
2.5
 42
0.625
 43
3.75
 44
1.25
 70
0
 73
0
 74
0
 77
1
 78
8
140
2.5
141
2.5
143
0.03937007874016
147
0.625
171
3
172
1
271
2
272
2
274
3
278
44
283
0
284
8
340
11
  0
ENDTAB
  0
TABLE
  2
BLOCK_RECORD
  5
1
100
AcDbSymbolTable
 70
1
  0
BLOCK_RECORD
  5
1F
100
AcDbSymbolTableRecord
100
AcDbBlockTableRecord
  2
*Model_Space
340
22
  0
BLOCK_RECORD
  5
1B
100
AcDbSymbolTableRecord
100
AcDbBlockTableRecord
  2
*Paper_Space
340
1E
  0
BLOCK_RECORD
  5
23
100
AcDbSymbolTableRecord
100
AcDbBlockTableRecord
  2
*Paper_Space0
340
26
  0
ENDTAB
  0
ENDSEC
  0
SECTION
  2
BLOCKS
  0
BLOCK
  5
20
100
AcDbEntity
  8
0
100
AcDbBlockBegin
  2
*Model_Space
 70
0
 10
0.0
 20
0.0
 30
0.0
  3
*Model_Space
  1

  0
ENDBLK
  5
21
100
AcDbEntity
  8
0
100
AcDbBlockEnd
  0
BLOCK
  5
1C
100
AcDbEntity
 67
1
  8
0
100
AcDbBlockBegin
  2
*Paper_Space
 70
0
 10
0.0
 20
0.0
 30
0.0
  3
*Paper_Space
  1

  0
ENDBLK
  5
1D
100
AcDbEntity
 67
1
  8
0
100
AcDbBlockEnd
  0
BLOCK
  5
24
100
AcDbEntity
  8
0
100
AcDbBlockBegin
  2
*Paper_Space0
 70
0
 10
0.0
 20
0.0
 30
0.0
  3
*Paper_Space0
  1

  0
ENDBLK
  5
25
100
AcDbEntity
  8
0
100
AcDbBlockEnd
  0
ENDSEC
  0
SECTION
  2
ENTITIES
  0
ARC
  5
45
100
AcDbEntity
  8
part_layer
 62
256
370
-1
  6
ByLayer
100
AcDbCircle
 10
-0.9500000000000055
 20
1.5500000000000016
 30
0.0
 40
1.0
100
AcDbArc
 50
90.0
 51
270.0
  0
LINE
  5
46
100
AcDbEntity
100
AcDbLine
  8
part_layer
 62
256
370
-1
  6
ByLayer
 10
-0.9499999999999984
 20
2.5500000000000016
 30
0.0
 11
-0.4500000000000055
 21
2.5499999999999874
 31
0.0
  0
LINE
  5
47
100
AcDbEntity
100
AcDbLine
  8
part_layer
 62
256
370
-1
  6
ByLayer
 10
-0.4500000000000055
 20
2.5499999999999874
 30
0.0
 11
-0.4500000000000055
 21
2.0499999999999874
 31
0.0
  0
LINE
  5
48
100
AcDbEntity
100
AcDbLine
  8
part_layer
 62
256
370
-1
  6
ByLayer
 10
-0.4500000000000055
 20
2.0499999999999874
 30
0.0
 11
-0.9500000000000055
 21
2.0499999999999874
 31
0.0
  0
ARC
  5
49
100
AcDbEntity
  8
part_layer
 62
256
370
-1
  6
ByLayer
100
AcDbCircle
 10
0.0249999999999986
 20
-0.0000000000000133
 30
0.0
 40
1.0502975768800151
100
AcDbArc
 50
271.3639275316026556
 51
91.3639275316027408
  0
LINE
  5
4A
100
AcDbEntity
100
AcDbLine
  8
part_layer
 62
256
370
-1
  6
ByLayer
 10
0.0
 20
-0.5499999999999998
 30
0.0
 11
-4.3166999999999991
 21
-0.5499999999999998
 31
0.0
  0
LINE
  5
4B
100
AcDbEntity
100
AcDbLine
  8
part_layer
 62
256
370
-1
  6
ByLayer
 10
-4.3166999999999991
 20
-0.5499999999999998
 30
0.0
 11
-4.3166999999999991
 21
-1.050000000000014
 31
0.0
  0
LINE
  5
4C
100
AcDbEntity
100
AcDbLine
  8
part_layer
 62
256
370
-1
  6
ByLayer
 10
-4.3166999999999991
 20
-1.0500000000000282
 30
0.0
 11
0.0499999999999936
 21
-1.0500000000000282
 31
0.0
  0
ARC
  5
4D
100
AcDbEntity
  8
part_layer
 62
256
370
-1
  6
ByLayer
100
AcDbCircle
 10
0.0000000000000009
 20
0.0
 30
0.0
 40
0.5499999999999998
100
AcDbArc
 50
269.9999999999998863
 51
90.0000000000000995
  0
LINE
  5
4E
100
AcDbEntity
100
AcDbLine
  8
part_layer
 62
256
370
-1
  6
ByLayer
 10
-0.0000000000000001
 20
0.5499999999999998
 30
0.0
 11
-0.9500000000000057
 21
0.5500000000000016
 31
0.0
  0
LINE
  5
4F
100
AcDbEntity
100
AcDbLine
  8
part_layer
 62
256
370
-1
  6
ByLayer
 10
-0.9500000000000055
 20
1.0500000000000016
 30
0.0
 11
-0.9500000000000055
 21
1.0500000000000016
 31
0.0
  0
LINE
  5
50
100
AcDbEntity
100
AcDbLine
  8
part_layer
 62
256
370
-1
  6
ByLayer
 10
-0.9500000000000055
 20
1.0500000000000016
 30
0.0
 11
-0.9500000000000055
 21
1.0500000000000016
 31
0.0
  0
LINE
  5
51
100
AcDbEntity
100
AcDbLine
  8
part_layer
 62
256
370
-1
  6
ByLayer
 10
-0.9500000000000055
 20
1.0500000000000016
 30
0.0
 11
0.0000000000000015
 21
1.0500000000000016
 31
0.0
  0
ARC
  5
52
100
AcDbEntity
  8
part_layer
 62
256
370
-1
  6
ByLayer
100
AcDbCircle
 10
-0.9500000000000055
 20
1.5500000000000016
 30
0.0
 40
0.4999999999999858
100
AcDbArc
 50
90.0
 51
270.0
  0
DIMENSION
  5
53
100
AcDbEntity
  8
0
 62
256
370
-1
  6
ByLayer
100
AcDbDimension
 10
1.044536046387325
 20
10.1704825569292172
 30
0.0
 11
2.4159191040003205
 21
12.0454825569292172
 31
0.0
 70
0
 71
5
 72
1
 41
1.0
 42
0.0
  1
1.5%%p\S0.5^ ;
  3
Standard
100
AcDbAlignedDimension
 13
-0.4500000000000055
 23
2.5499999999999874
 33
0.0
 14
1.0752975768799189
 24
0.0
 34
0.0
 50
0.0
100
AcDbRotatedDimension
  0
DIMENSION
  5
54
100
AcDbEntity
  8
0
 62
256
370
-1
  6
ByLayer
100
AcDbDimension
 10
-1.9500000000000053
 20
4.9325015040006406
 30
0.0
 11
1.8790481920002491
 21
6.8075015040006406
 31
0.0
 70
0
 71
5
 72
1
 41
1.0
 42
0.0
  1
3.0%%p\S0.5^ ;
  3
Standard
100
AcDbAlignedDimension
 13
1.0752975768800137
 23
1.5500000000000016
 33
0.0
 14
-1.9500000000000055
 24
1.5500000000000016
 34
0.0
 50
0.0
100
AcDbRotatedDimension
  0
ARC
  5
55
100
AcDbEntity
  8
part_layer
 62
256
370
-1
  6
ByLayer
100
AcDbCircle
 10
19.024999999999995
 20
1.5500000000000016
 30
0.0
 40
1.0
100
AcDbArc
 50
90.0
 51
270.0
  0
LINE
  5
56
100
AcDbEntity
100
AcDbLine
  8
part_layer
 62
256
370
-1
  6
ByLayer
 10
19.0250000000000021
 20
2.5500000000000016
 30
0.0
 11
19.524999999999995
 21
2.5499999999999874
 31
0.0
  0
LINE
  5
57
100
AcDbEntity
100
AcDbLine
  8
part_layer
 62
256
370
-1
  6
ByLayer
 10
19.524999999999995
 20
2.5499999999999874
 30
0.0
 11
19.524999999999995
 21
2.0499999999999874
 31
0.0
  0
LINE
  5
58
100
AcDbEntity
100
AcDbLine
  8
part_layer
 62
256
370
-1
  6
ByLayer
 10
19.524999999999995
 20
2.0499999999999874
 30
0.0
 11
19.024999999999995
 21
2.0499999999999874
 31
0.0
  0
ARC
  5
59
100
AcDbEntity
  8
part_layer
 62
256
370
-1
  6
ByLayer
100
AcDbCircle
 10
20.0
 20
-0.0000000000000133
 30
0.0
 40
1.0502975768800151
100
AcDbArc
 50
271.3639275316026556
 51
91.3639275316027408
  0
LINE
  5
5A
100
AcDbEntity
100
AcDbLine
  8
part_layer
 62
256
370
-1
  6
ByLayer
 10
19.9750000000000014
 20
-0.5499999999999998
 30
0.0
 11
15.6583000000000041
 21
-0.5499999999999998
 31
0.0
  0
LINE
  5
5B
100
AcDbEntity
100
AcDbLine
  8
part_layer
 62
256
370
-1
  6
ByLayer
 10
15.6583000000000041
 20
-0.5499999999999998
 30
0.0
 11
15.6583000000000041
 21
-1.050000000000014
 31
0.0
  0
LINE
  5
5C
100
AcDbEntity
100
AcDbLine
  8
part_layer
 62
256
370
-1
  6
ByLayer
 10
15.6583000000000041
 20
-1.0500000000000282
 30
0.0
 11
20.024999999999995
 21
-1.0500000000000282
 31
0.0
  0
ARC
  5
5D
100
AcDbEntity
  8
part_layer
 62
256
370
-1
  6
ByLayer
100
AcDbCircle
 10
19.9750000000000014
 20
0.0
 30
0.0
 40
0.5499999999999998
100
AcDbArc
 50
269.9999999999998863
 51
90.0000000000000995
  0
LINE
  5
5E
100
AcDbEntity
100
AcDbLine
  8
part_layer
 62
256
370
-1
  6
ByLayer
 10
19.9750000000000014
 20
0.5499999999999998
 30
0.0
 11
19.024999999999995
 21
0.5500000000000016
 31
0.0
  0
LINE
  5
5F
100
AcDbEntity
100
AcDbLine
  8
part_layer
 62
256
370
-1
  6
ByLayer
 10
19.024999999999995
 20
1.0500000000000016
 30
0.0
 11
19.024999999999995
 21
1.0500000000000016
 31
0.0
  0
LINE
  5
60
100
AcDbEntity
100
AcDbLine
  8
part_layer
 62
256
370
-1
  6
ByLayer
 10
19.024999999999995
 20
1.0500000000000016
 30
0.0
 11
19.024999999999995
 21
1.0500000000000016
 31
0.0
  0
LINE
  5
61
100
AcDbEntity
100
AcDbLine
  8
part_layer
 62
256
370
-1
  6
ByLayer
 10
19.024999999999995
 20
1.0500000000000016
 30
0.0
 11
19.9750000000000014
 21
1.0500000000000016
 31
0.0
  0
ARC
  5
62
100
AcDbEntity
  8
part_layer
 62
256
370
-1
  6
ByLayer
100
AcDbCircle
 10
19.024999999999995
 20
1.5500000000000016
 30
0.0
 40
0.4999999999999858
100
AcDbArc
 50
90.0
 51
270.0
  0
ARC
  5
63
100
AcDbEntity
  8
part_layer
 62
256
370
-1
  6
ByLayer
100
AcDbCircle
 10
29.0249999999999986
 20
1.5500000000000016
 30
0.0
 40
1.0
100
AcDbArc
 50
90.0
 51
270.0
  0
LINE
  5
64
100
AcDbEntity
100
AcDbLine
  8
part_layer
 62
256
370
-1
  6
ByLayer
 10
29.0250000000000057
 20
2.5500000000000016
 30
0.0
 11
29.5249999999999986
 21
2.5499999999999874
 31
0.0
  0
LINE
  5
65
100
AcDbEntity
100
AcDbLine
  8
part_layer
 62
256
370
-1
  6
ByLayer
 10
29.5249999999999986
 20
2.5499999999999874
 30
0.0
 11
29.5249999999999986
 21
2.0499999999999874
 31
0.0
  0
LINE
  5
66
100
AcDbEntity
100
AcDbLine
  8
part_layer
 62
256
370
-1
  6
ByLayer
 10
29.5249999999999986
 20
2.0499999999999874
 30
0.0
 11
29.0249999999999986
 21
2.0499999999999874
 31
0.0
  0
ARC
  5
67
100
AcDbEntity
  8
part_layer
 62
256
370
-1
  6
ByLayer
100
AcDbCircle
 10
30.0
 20
-0.0000000000000133
 30
0.0
 40
1.0502975768800151
100
AcDbArc
 50
271.3639275316026556
 51
91.3639275316027408
  0
LINE
  5
68
100
AcDbEntity
100
AcDbLine
  8
part_layer
 62
256
370
-1
  6
ByLayer
 10
29.9750000000000014
 20
-0.5499999999999998
 30
0.0
 11
25.6583000000000041
 21
-0.5499999999999998
 31
0.0
  0
LINE
  5
69
100
AcDbEntity
100
AcDbLine
  8
part_layer
 62
256
370
-1
  6
ByLayer
 10
25.6583000000000041
 20
-0.5499999999999998
 30
0.0
 11
25.6583000000000041
 21
-1.050000000000014
 31
0.0
  0
LINE
  5
6A
100
AcDbEntity
100
AcDbLine
  8
part_layer
 62
256
370
-1
  6
ByLayer
 10
25.6583000000000041
 20
-1.0500000000000282
 30
0.0
 11
30.0249999999999986
 21
-1.0500000000000282
 31
0.0
  0
ARC
  5
6B
100
AcDbEntity
  8
part_layer
 62
256
370
-1
  6
ByLayer
100
AcDbCircle
 10
29.9750000000000014
 20
0.0
 30
0.0
 40
0.5499999999999998
100
AcDbArc
 50
269.9999999999998863
 51
90.0000000000000995
  0
LINE
  5
6C
100
AcDbEntity
100
AcDbLine
  8
part_layer
 62
256
370
-1
  6
ByLayer
 10
29.9750000000000014
 20
0.5499999999999998
 30
0.0
 11
29.0249999999999986
 21
0.5500000000000016
 31
0.0
  0
LINE
  5
6D
100
AcDbEntity
100
AcDbLine
  8
part_layer
 62
256
370
-1
  6
ByLayer
 10
29.0249999999999986
 20
1.0500000000000016
 30
0.0
 11
29.0249999999999986
 21
1.0500000000000016
 31
0.0
  0
LINE
  5
6E
100
AcDbEntity
100
AcDbLine
  8
part_layer
 62
256
370
-1
  6
ByLayer
 10
29.0249999999999986
 20
1.0500000000000016
 30
0.0
 11
29.0249999999999986
 21
1.0500000000000016
 31
0.0
  0
LINE
  5
6F
100
AcDbEntity
100
AcDbLine
  8
part_layer
 62
256
370
-1
  6
ByLayer
 10
29.0249999999999986
 20
1.0500000000000016
 30
0.0
 11
29.9750000000000014
 21
1.0500000000000016
 31
0.0
  0
ARC
  5
70
100
AcDbEntity
  8
part_layer
 62
256
370
-1
  6
ByLayer
100
AcDbCircle
 10
29.0249999999999986
 20
1.5500000000000016
 30
0.0
 40
0.4999999999999858
100
AcDbArc
 50
90.0
 51
270.0
  0
ARC
  5
71
100
AcDbEntity
  8
part_layer
 62
256
370
-1
  6
ByLayer
100
AcDbCircle
 10
39.0249999999999986
 20
1.5500000000000016
 30
0.0
 40
1.0
100
AcDbArc
 50
90.0
 51
270.0
  0
LINE
  5
72
100
AcDbEntity
100
AcDbLine
  8
part_layer
 62
256
370
-1
  6
ByLayer
 10
39.0250000000000057
 20
2.5500000000000016
 30
0.0
 11
39.5249999999999986
 21
2.5499999999999874
 31
0.0
  0
LINE
  5
73
100
AcDbEntity
100
AcDbLine
  8
part_layer
 62
256
370
-1
  6
ByLayer
 10
39.5249999999999986
 20
2.5499999999999874
 30
0.0
 11
39.5249999999999986
 21
2.0499999999999874
 31
0.0
  0
LINE
  5
74
100
AcDbEntity
100
AcDbLine
  8
part_layer
 62
256
370
-1
  6
ByLayer
 10
39.5249999999999986
 20
2.0499999999999874
 30
0.0
 11
39.0249999999999986
 21
2.0499999999999874
 31
0.0
  0
ARC
  5
75
100
AcDbEntity
  8
part_layer
 62
256
370
-1
  6
ByLayer
100
AcDbCircle
 10
40.0
 20
-0.0000000000000133
 30
0.0
 40
1.0502975768800151
100
AcDbArc
 50
271.3639275316026556
 51
91.3639275316027408
  0
LINE
  5
76
100
AcDbEntity
100
AcDbLine
  8
part_layer
 62
256
370
-1
  6
ByLayer
 10
39.9750000000000014
 20
-0.5499999999999998
 30
0.0
 11
35.6583000000000041
 21
-0.5499999999999998
 31
0.0
  0
LINE
  5
77
100
AcDbEntity
100
AcDbLine
  8
part_layer
 62
256
370
-1
  6
ByLayer
 10
35.6583000000000041
 20
-0.5499999999999998
 30
0.0
 11
35.6583000000000041
 21
-1.050000000000014
 31
0.0
  0
LINE
  5
78
100
AcDbEntity
100
AcDbLine
  8
part_layer
 62
256
370
-1
  6
ByLayer
 10
35.6583000000000041
 20
-1.0500000000000282
 30
0.0
 11
40.0249999999999986
 21
-1.0500000000000282
 31
0.0
  0
ARC
  5
79
100
AcDbEntity
  8
part_layer
 62
256
370
-1
  6
ByLayer
100
AcDbCircle
 10
39.9750000000000014
 20
0.0
 30
0.0
 40
0.5499999999999998
100
AcDbArc
 50
269.9999999999998863
 51
90.0000000000000995
  0
LINE
  5
7A
100
AcDbEntity
100
AcDbLine
  8
part_layer
 62
256
370
-1
  6
ByLayer
 10
39.9750000000000014
 20
0.5499999999999998
 30
0.0
 11
39.0249999999999986
 21
0.5500000000000016
 31
0.0
  0
LINE
  5
7B
100
AcDbEntity
100
AcDbLine
  8
part_layer
 62
256
370
-1
  6
ByLayer
 10
39.0249999999999986
 20
1.0500000000000016
 30
0.0
 11
39.0249999999999986
 21
1.0500000000000016
 31
0.0
  0
LINE
  5
7C
100
AcDbEntity
100
AcDbLine
  8
part_layer
 62
256
370
-1
  6
ByLayer
 10
39.0249999999999986
 20
1.0500000000000016
 30
0.0
 11
39.0249999999999986
 21
1.0500000000000016
 31
0.0
  0
LINE
  5
7D
100
AcDbEntity
100
AcDbLine
  8
part_layer
 62
256
370
-1
  6
ByLayer
 10
39.0249999999999986
 20
1.0500000000000016
 30
0.0
 11
39.9750000000000014
 21
1.0500000000000016
 31
0.0
  0
ARC
  5
7E
100
AcDbEntity
  8
part_layer
 62
256
370
-1
  6
ByLayer
100
AcDbCircle
 10
39.0249999999999986
 20
1.5500000000000016
 30
0.0
 40
0.4999999999999858
100
AcDbArc
 50
90.0
 51
270.0
  0
DIMENSION
  5
7F
100
AcDbEntity
  8
0
 62
256
370
-1
  6
ByLayer
100
AcDbDimension
 10
19.9750000000000014
 20
0.5499999999999998
 30
0.0
 11
18.1000000000000014
 21
2.4481313587203206
 31
0.0
 70
3
 71
5
 72
1
 41
1.0
 42
0.0
  1
1.1\S+0.1^ -0.0;
  3
Standard
100
AcDbDiametricDimension
 15
19.9750000000000014
 25
-0.5499999999999998
 35
0.0
 40
0.0
  0
DIMENSION
  5
80
100
AcDbEntity
  8
0
 62
256
370
-1
  6
ByLayer
100
AcDbDimension
 10
29.5249999999999986
 20
0.5499999999999998
 30
0.0
 11
27.6499999999999986
 21
4.2116805555555965
 31
0.0
 70
0
 71
5
 72
1
 41
1.0
 42
0.0
  1
2.3%%p\S0.2^ ;
  3
Standard
100
AcDbAlignedDimension
 13
29.5249999999999986
 23
2.5499999999999874
 33
0.0
 14
29.5249999999999986
 24
0.5499999999999998
 34
0.0
 50
90.0
100
AcDbRotatedDimension
  0
LINE
  5
81
100
AcDbEntity
100
AcDbLine
  8
part_layer
 62
256
370
-1
  6
ByLayer
 10
-4.3166999999999991
 20
20.0
 30
0.0
 11
-4.3166999999999991
 21
21.1499999999999986
 31
0.0
  0
LINE
  5
82
100
AcDbEntity
100
AcDbLine
  8
part_layer
 62
256
370
-1
  6
ByLayer
 10
-1.9500000000000055
 20
20.0
 30
0.0
 11
-1.9500000000000055
 21
21.1499999999999986
 31
0.0
  0
LINE
  5
83
100
AcDbEntity
100
AcDbLine
  8
part_layer
 62
256
370
-1
  6
ByLayer
 10
-0.450000000000006
 20
21.1499999999999986
 30
0.0
 11
-0.450000000000006
 21
20.0
 31
0.0
  0
LINE
  5
84
100
AcDbEntity
100
AcDbLine
  8
part_layer
 62
256
370
-1
  6
ByLayer
 10
1.075297576880013
 20
20.0
 30
0.0
 11
1.075297576880013
 21
21.1499999999999986
 31
0.0
  0
LINE
  5
85
100
AcDbEntity
100
AcDbLine
  8
part_layer
 62
256
370
-1
  6
ByLayer
 10
-4.3166999999999991
 20
21.1499999999999986
 30
0.0
 11
1.075297576880013
 21
21.1499999999999986
 31
0.0
  0
LINE
  5
86
100
AcDbEntity
100
AcDbLine
  8
part_layer
 62
256
370
-1
  6
ByLayer
 10
1.0752975768800135
 20
20.0
 30
0.0
 11
-4.3166999999999991
 21
20.0
 31
0.0
  0
MTEXT
  5
87
100
AcDbEntity
100
AcDbMText
  8
0
 62
256
370
-1
  6
ByLayer
 10
4.1523609600009799
 20
27.3468620800064564
 30
0.0
 40
1.0
 41
100.0
 71
1
 72
0
  1
Top View
  7
normallatin1
 50
0.0
 73
1
 44
1.0
  0
LEADER
  5
88
  8
0
 62
256
370
-1
  6
ByLayer
100
AcDbEntity
100
AcDbLeader
  3
Standard
 71
1
 72
0
 73
3
 74
0
 75
0
 40
1.0
 41
10.0
 76
2
 10
-0.0419430400000099
 20
22.9428428800054149
 10
3.9426457600009308
 20
25.8369126400060978
  0
DIMENSION
  5
89
100
AcDbEntity
  8
0
 62
256
370
-1
  6
ByLayer
100
AcDbDimension
 10
-4.3166999999999991
 20
20.0
 30
0.0
 11
-6.1916999999999991
 21
22.7737600000053995
 31
0.0
 70
0
 71
5
 72
1
 41
1.0
 42
0.0
  1
1.15%%p\S0.04^ ;
  3
Standard
100
AcDbAlignedDimension
 13
-4.3166999999999991
 23
21.1499999999999986
 33
0.0
 14
-4.3166999999999991
 24
20.0
 34
0.0
 50
90.0
100
AcDbRotatedDimension
  0
DIMENSION
  5
8A
100
AcDbEntity
  8
0
 62
256
370
-1
  6
ByLayer
100
AcDbDimension
 10
-11.0
 20
-1.0
 30
0.0
 11
-13.0
 21
1.9999999999999998
 31
0.0
 70
0
 71
5
 72
1
 41
1.0
 42
0.0
  1
0.38%%p\S0.02^ ;
  3
Standard
100
AcDbAlignedDimension
 13
-4.3166999999999991
 23
-0.5499999999999998
 33
0.0
 14
-4.3166999999999991
 24
-1.050000000000014
 34
0.0
 50
90.0
100
AcDbRotatedDimension
  0
ARC
  5
8B
100
AcDbEntity
  8
part_layer
 62
256
370
-1
  6
ByLayer
100
AcDbCircle
 10
-19.9500000000000064
 20
1.5500000000000016
 30
0.0
 40
1.0
100
AcDbArc
 50
90.0
 51
270.0
  0
LINE
  5
8C
100
AcDbEntity
100
AcDbLine
  8
part_layer
 62
256
370
-1
  6
ByLayer
 10
-19.9499999999999993
 20
2.5500000000000016
 30
0.0
 11
-19.4500000000000064
 21
2.5499999999999874
 31
0.0
  0
LINE
  5
8D
100
AcDbEntity
100
AcDbLine
  8
part_layer
 62
256
370
-1
  6
ByLayer
 10
-19.4500000000000064
 20
2.5499999999999874
 30
0.0
 11
-19.4500000000000064
 21
2.0499999999999874
 31
0.0
  0
LINE
  5
8E
100
AcDbEntity
100
AcDbLine
  8
part_layer
 62
256
370
-1
  6
ByLayer
 10
-19.4500000000000064
 20
2.0499999999999874
 30
0.0
 11
-19.9500000000000064
 21
2.0499999999999874
 31
0.0
  0
ARC
  5
8F
100
AcDbEntity
  8
part_layer
 62
256
370
-1
  6
ByLayer
100
AcDbCircle
 10
-18.9750000000000014
 20
-0.0000000000000133
 30
0.0
 40
1.0502975768800151
100
AcDbArc
 50
271.3639275316026556
 51
91.3639275316027408
  0
LINE
  5
90
100
AcDbEntity
100
AcDbLine
  8
part_layer
 62
256
370
-1
  6
ByLayer
 10
-19.0
 20
-0.5499999999999998
 30
0.0
 11
-23.3166999999999973
 21
-0.5499999999999998
 31
0.0
  0
LINE
  5
91
100
AcDbEntity
100
AcDbLine
  8
part_layer
 62
256
370
-1
  6
ByLayer
 10
-23.3166999999999973
 20
-0.5499999999999998
 30
0.0
 11
-23.3166999999999973
 21
-1.050000000000014
 31
0.0
  0
LINE
  5
92
100
AcDbEntity
100
AcDbLine
  8
part_layer
 62
256
370
-1
  6
ByLayer
 10
-23.3166999999999973
 20
-1.0500000000000282
 30
0.0
 11
-18.9500000000000064
 21
-1.0500000000000282
 31
0.0
  0
ARC
  5
93
100
AcDbEntity
  8
part_layer
 62
256
370
-1
  6
ByLayer
100
AcDbCircle
 10
-19.0
 20
0.0
 30
0.0
 40
0.5499999999999998
100
AcDbArc
 50
269.9999999999998863
 51
90.0000000000000995
  0
LINE
  5
94
100
AcDbEntity
100
AcDbLine
  8
part_layer
 62
256
370
-1
  6
ByLayer
 10
-19.0
 20
0.5499999999999998
 30
0.0
 11
-19.9500000000000064
 21
0.5500000000000016
 31
0.0
  0
LINE
  5
95
100
AcDbEntity
100
AcDbLine
  8
part_layer
 62
256
370
-1
  6
ByLayer
 10
-19.9500000000000064
 20
1.0500000000000016
 30
0.0
 11
-19.9500000000000064
 21
1.0500000000000016
 31
0.0
  0
LINE
  5
96
100
AcDbEntity
100
AcDbLine
  8
part_layer
 62
256
370
-1
  6
ByLayer
 10
-19.9500000000000064
 20
1.0500000000000016
 30
0.0
 11
-19.9500000000000064
 21
1.0500000000000016
 31
0.0
  0
LINE
  5
97
100
AcDbEntity
100
AcDbLine
  8
part_layer
 62
256
370
-1
  6
ByLayer
 10
-19.9500000000000064
 20
1.0500000000000016
 30
0.0
 11
-19.0
 21
1.0500000000000016
 31
0.0
  0
ARC
  5
98
100
AcDbEntity
  8
part_layer
 62
256
370
-1
  6
ByLayer
100
AcDbCircle
 10
-19.9500000000000064
 20
1.5500000000000016
 30
0.0
 40
0.4999999999999858
100
AcDbArc
 50
90.0
 51
270.0
  0
LEADER
  5
99
  8
0
 62
256
370
-1
  6
ByLayer
100
AcDbEntity
100
AcDbLeader
  3
Standard
 71
1
 72
0
 73
3
 74
0
 75
0
 40
1.0
 41
10.0
 76
3
 10
-21.1000000000000014
 20
-1.1000000000000001
 10
-25.0
 20
-4.0
 10
-25.0
 20
-4.0
  0
LINE
  5
9A
100
AcDbEntity
100
AcDbLine
  8
0
 62
256
370
-1
  6
ByLayer
 10
-17.6963738756557518
 20
2.7162335252582444
 30
0.0
 11
-17.6963738756557518
 21
2.7162335252582444
 31
0.0
  0
ARC
  5
9B
100
AcDbEntity
  8
part_layer
 62
256
370
-1
  6
ByLayer
100
AcDbCircle
 10
-40.953896319991955
 20
1.5500000000000016
 30
0.0
 40
1.0
100
AcDbArc
 50
90.0
 51
270.0
  0
LINE
  5
9C
100
AcDbEntity
100
AcDbLine
  8
part_layer
 62
256
370
-1
  6
ByLayer
 10
-40.9538963199919479
 20
2.5500000000000016
 30
0.0
 11
-40.453896319991955
 21
2.5499999999999874
 31
0.0
  0
LINE
  5
9D
100
AcDbEntity
100
AcDbLine
  8
part_layer
 62
256
370
-1
  6
ByLayer
 10
-40.453896319991955
 20
2.5499999999999874
 30
0.0
 11
-40.453896319991955
 21
2.0499999999999874
 31
0.0
  0
LINE
  5
9E
100
AcDbEntity
100
AcDbLine
  8
part_layer
 62
256
370
-1
  6
ByLayer
 10
-40.453896319991955
 20
2.0499999999999874
 30
0.0
 11
-40.953896319991955
 21
2.0499999999999874
 31
0.0
  0
ARC
  5
9F
100
AcDbEntity
  8
part_layer
 62
256
370
-1
  6
ByLayer
100
AcDbCircle
 10
-39.9788963199919536
 20
-0.0000000000000133
 30
0.0
 40
1.0502975768800151
100
AcDbArc
 50
271.3639275316026556
 51
91.3639275316027408
  0
LINE
  5
A0
100
AcDbEntity
100
AcDbLine
  8
part_layer
 62
256
370
-1
  6
ByLayer
 10
-40.0038963199919522
 20
-0.5499999999999998
 30
0.0
 11
-44.3205963199919495
 21
-0.5499999999999998
 31
0.0
  0
LINE
  5
A1
100
AcDbEntity
100
AcDbLine
  8
part_layer
 62
256
370
-1
  6
ByLayer
 10
-44.3205963199919495
 20
-0.5499999999999998
 30
0.0
 11
-44.3205963199919495
 21
-1.050000000000014
 31
0.0
  0
LINE
  5
A2
100
AcDbEntity
100
AcDbLine
  8
part_layer
 62
256
370
-1
  6
ByLayer
 10
-44.3205963199919495
 20
-1.0500000000000282
 30
0.0
 11
-39.953896319991955
 21
-1.0500000000000282
 31
0.0
  0
ARC
  5
A3
100
AcDbEntity
  8
part_layer
 62
256
370
-1
  6
ByLayer
100
AcDbCircle
 10
-40.0038963199919522
 20
0.0
 30
0.0
 40
0.5499999999999998
100
AcDbArc
 50
269.9999999999998863
 51
90.0000000000000995
  0
LINE
  5
A4
100
AcDbEntity
100
AcDbLine
  8
part_layer
 62
256
370
-1
  6
ByLayer
 10
-40.0038963199919522
 20
0.5499999999999998
 30
0.0
 11
-40.953896319991955
 21
0.5500000000000016
 31
0.0
  0
LINE
  5
A5
100
AcDbEntity
100
AcDbLine
  8
part_layer
 62
256
370
-1
  6
ByLayer
 10
-40.953896319991955
 20
1.0500000000000016
 30
0.0
 11
-40.953896319991955
 21
1.0500000000000016
 31
0.0
  0
LINE
  5
A6
100
AcDbEntity
100
AcDbLine
  8
part_layer
 62
256
370
-1
  6
ByLayer
 10
-40.953896319991955
 20
1.0500000000000016
 30
0.0
 11
-40.953896319991955
 21
1.0500000000000016
 31
0.0
  0
LINE
  5
A7
100
AcDbEntity
100
AcDbLine
  8
part_layer
 62
256
370
-1
  6
ByLayer
 10
-40.953896319991955
 20
1.0500000000000016
 30
0.0
 11
-40.0038963199919522
 21
1.0500000000000016
 31
0.0
  0
ARC
  5
A8
100
AcDbEntity
  8
part_layer
 62
256
370
-1
  6
ByLayer
100
AcDbCircle
 10
-40.953896319991955
 20
1.5500000000000016
 30
0.0
 40
0.4999999999999858
100
AcDbArc
 50
90.0
 51
270.0
  0
LINE
  5
A9
100
AcDbEntity
100
AcDbLine
  8
0
 62
256
370
-1
  6
ByLayer
 10
-41.3896077803271254
 20
2.517980566061746
 30
0.0
 11
-38.3136884654076013
 21
2.9033978920964598
 31
0.0
  0
DIMENSION
  5
AA
100
AcDbEntity
  8
0
 62
256
370
-1
  6
ByLayer
100
AcDbDimension
 10
-38.3136884654076013
 20
2.9033978920964598
 30
0.0
 11
9.9961036800080478
 21
0.0
 31
0.0
 70
2
 71
5
 72
1
 41
1.0
 42
0.0
  1
5%%d%%p4
  3
Standard
100
AcDb2LineAngularDimension
 13
-44.3205963199919495
 23
-1.0500000000000282
 33
0.0
 14
-39.953896319991955
 24
-1.0500000000000282
 34
0.0
 15
-41.3896077803271254
 25
2.517980566061746
 35
0.0
 16
-36.045945733119332
 26
2.0753281974275328
 36
0.0
  0
MTEXT
  5
AB
100
AcDbEntity
100
AcDbMText
  8
0
 62
256
370
-1
  6
ByLayer
 10
-57.0
 20
17.0
 30
0.0
 40
1.0
 41
100.0
 71
1
 72
0
  1
This angle\Pshould be\P5 degrees \P+/- 4 degrees\PSo that this \Pcorner sticks \Pout slightly
  7
normallatin1
 50
0.0
 73
1
 44
1.0
  0
LEADER
  5
AC
  8
0
 62
256
370
-1
  6
ByLayer
100
AcDbEntity
100
AcDbLeader
  3
Standard
 71
1
 72
0
 73
3
 74
0
 75
0
 40
1.0
 41
10.0
 76
3
 10
-40.4880267392088626
 20
2.6574840681192495
 10
-43.2863431065713584
 20
8.8046829568015799
 10
-47.8175336038521692
 20
9.8354751078417646
  0
MTEXT
  5
AD
100
AcDbEntity
100
AcDbMText
  8
0
 62
256
370
-1
  6
ByLayer
 10
-27.0
 20
-5.0
 30
0.0
 40
1.0
 41
100.0
 71
1
 72
0
  1
This length \Pflat to within \P0.1mm
  7
normallatin1
 50
0.0
 73
1
 44
1.0
  0
LINE
  5
AE
100
AcDbEntity
100
AcDbLine
  8
TitleBlock
 62
256
370
-1
  6
ByLayer
 10
-80.0
 20
50.0
 30
0.0
 11
70.0
 21
50.0
 31
0.0
  0
LINE
  5
AF
100
AcDbEntity
100
AcDbLine
  8
TitleBlock
 62
256
370
-1
  6
ByLayer
 10
70.0
 20
50.0
 30
0.0
 11
70.0
 21
-50.0
 31
0.0
  0
LINE
  5
B0
100
AcDbEntity
100
AcDbLine
  8
TitleBlock
 62
256
370
-1
  6
ByLayer
 10
70.0
 20
-50.0
 30
0.0
 11
-80.0
 21
-50.0
 31
0.0
  0
LINE
  5
B1
100
AcDbEntity
100
AcDbLine
  8
TitleBlock
 62
256
370
-1
  6
ByLayer
 10
-80.0
 20
-50.0
 30
0.0
 11
-80.0
 21
50.0
 31
0.0
  0
LINE
  5
B2
100
AcDbEntity
100
AcDbLine
  8
TitleBlock
 62
256
370
-1
  6
ByLayer
 10
70.0
 20
-50.0
 30
0.0
 11
20.0
 21
-50.0
 31
0.0
  0
LINE
  5
B3
100
AcDbEntity
100
AcDbLine
  8
TitleBlock
 62
256
370
-1
  6
ByLayer
 10
20.0
 20
-50.0
 30
0.0
 11
20.0
 21
-20.0
 31
0.0
  0
LINE
  5
B4
100
AcDbEntity
100
AcDbLine
  8
TitleBlock
 62
256
370
-1
  6
ByLayer
 10
20.0
 20
-20.0
 30
0.0
 11
70.0
 21
-20.0
 31
0.0
  0
LINE
  5
B5
100
AcDbEntity
100
AcDbLine
  8
TitleBlock
 62
256
370
-1
  6
ByLayer
 10
70.0
 20
-20.0
 30
0.0
 11
70.0
 21
-50.0
 31
0.0
  0
MTEXT
  5
B6
100
AcDbEntity
100
AcDbMText
  8
TitleBlock
 62
256
370
-1
  6
ByLayer
 10
30.0
 20
-27.0
 30
0.0
 40
1.0
 41
100.0
 71
1
 72
0
  1
DodoHand metal clip #1 (For N/E/S/W keys)\P\PTo be manufactured from mild steel or other\Psuitable ferrous material.\P\PVersion 1.0\P\P2014-01-13\P\PAll dimensions in mm unless stated otherwise.\P
  7
normallatin1
 50
0.0
 73
1
 44
1.0
  0
DIMENSION
  5
B7
100
AcDbEntity
  8
0
 62
256
370
-1
  6
ByLayer
100
AcDbDimension
 10
0.9939585115095956
 20
-3.5272333019057331
 30
0.0
 11
0.7969177600002018
 21
-1.6522333019057331
 31
0.0
 70
0
 71
5
 72
1
 41
1.0
 42
0.0
  1
4.6%%p\S0.3^ ;
  3
Standard
100
AcDbAlignedDimension
 13
-4.3166999999999991
 23
-1.050000000000014
 33
0.0
 14
1.0752975768800137
 24
0.0
 34
0.0
 50
0.0
100
AcDbRotatedDimension
  0
DIMENSION
  5
B8
100
AcDbEntity
  8
0
 62
256
370
-1
  6
ByLayer
100
AcDbDimension
 10
39.0249999999999986
 20
-0.5499999999999998
 30
0.0
 11
37.1499999999999986
 21
2.2763326668805792
 31
0.0
 70
0
 71
5
 72
1
 41
1.0
 42
0.0
  1
1.1\S+0.0^ -0.2;
  3
Standard
100
AcDbAlignedDimension
 13
39.0249999999999986
 23
0.5500000000000016
 33
0.0
 14
39.0249999999999986
 24
-0.5499999999999998
 34
0.0
 50
90.0
100
AcDbRotatedDimension
  0
ENDSEC
  0
SECTION
  2
OBJECTS
  0
DICTIONARY
  5
C
100
AcDbDictionary
280
0
281
1
  3
ACAD_GROUP
350
D
  3
ACAD_LAYOUT
350
1A
  3
ACAD_MLINESTYLE
350
17
  3
ACAD_PLOTSETTINGS
350
19
  3
ACAD_PLOTSTYLENAME
350
E
  3
AcDbVariableDictionary
350
B9
  0
DICTIONARY
  5
D
100
AcDbDictionary
280
0
281
1
  0
ACDBDICTIONARYWDFLT
  5
E
100
AcDbDictionary
281
1
  3
Normal
350
F
100
AcDbDictionaryWithDefault
340
F
  0
ACDBPLACEHOLDER
  5
F
  0
DICTIONARY
  5
17
100
AcDbDictionary
280
0
281
1
  3
Standard
350
18
  0
MLINESTYLE
  5
18
100
AcDbMlineStyle
  2
STANDARD
 70
0
  3

 62
256
 51
90.0
 52
90.0
 71
2
 49
0.5
 62
256
  6
BYLAYER
 49
-0.5
 62
256
  6
BYLAYER
  0
DICTIONARY
  5
19
100
AcDbDictionary
280
0
281
1
  0
DICTIONARY
  5
1A
100
AcDbDictionary
281
1
  3
Layout1
350
1E
  3
Layout2
350
26
  3
Model
350
22
  0
LAYOUT
  5
1E
100
AcDbPlotSettings
  1

  2
C:\Program Files\AutoCAD 2002\plotters\DWF ePlot (optimized for plotting).pc3
  4

  6

 40
0.0
 41
0.0
 42
0.0
 43
0.0
 44
0.0
 45
0.0
 46
0.0
 47
0.0
 48
0.0
 49
0.0
140
0.0
141
0.0
142
1.0
143
1.0
 70
688
 72
0
 73
0
 74
5
  7

 75
16
147
1.0
148
0.0
149
0.0
100
AcDbLayout
  1
Layout1
 70
1
 71
1
 10
0.0
 20
0.0
 11
420.0
 21
297.0
 12
0.0
 22
0.0
 32
0.0
 14
100000000000000000000.0
 24
100000000000000000000.0
 34
100000000000000000000.0
 15
-100000000000000000000.0
 25
-100000000000000000000.0
 35
-100000000000000000000.0
146
0.0
 13
0.0
 23
0.0
 33
0.0
 16
1.0
 26
0.0
 36
0.0
 17
0.0
 27
1.0
 37
0.0
 76
0
330
1B
  0
LAYOUT
  5
22
100
AcDbPlotSettings
  1

  2
C:\Program Files\AutoCAD 2002\plotters\DWF ePlot (optimized for plotting).pc3
  4

  6

 40
0.0
 41
0.0
 42
0.0
 43
0.0
 44
0.0
 45
0.0
 46
0.0
 47
0.0
 48
0.0
 49
0.0
140
0.0
141
0.0
142
1.0
143
1.0
 70
1712
 72
0
 73
0
 74
0
  7

 75
0
147
1.0
148
0.0
149
0.0
100
AcDbLayout
  1
Model
 70
1
 71
0
 10
0.0
 20
0.0
 11
12.0
 21
9.0
 12
0.0
 22
0.0
 32
0.0
 14
0.0
 24
0.0
 34
0.0
 15
0.0
 25
0.0
 35
0.0
146
0.0
 13
0.0
 23
0.0
 33
0.0
 16
1.0
 26
0.0
 36
0.0
 17
0.0
 27
1.0
 37
0.0
 76
0
330
1F
  0
LAYOUT
  5
26
100
AcDbPlotSettings
  1

  2
C:\Program Files\AutoCAD 2002\plotters\DWF ePlot (optimized for plotting).pc3
  4

  6

 40
0.0
 41
0.0
 42
0.0
 43
0.0
 44
0.0
 45
0.0
 46
0.0
 47
0.0
 48
0.0
 49
0.0
140
0.0
141
0.0
142
1.0
143
1.0
 70
688
 72
0
 73
0
 74
5
  7

 75
16
147
1.0
148
0.0
149
0.0
100
AcDbLayout
  1
Layout2
 70
1
 71
2
 10
0.0
 20
0.0
 11
12.0
 21
9.0
 12
0.0
 22
0.0
 32
0.0
 14
0.0
 24
0.0
 34
0.0
 15
0.0
 25
0.0
 35
0.0
146
0.0
 13
0.0
 23
0.0
 33
0.0
 16
1.0
 26
0.0
 36
0.0
 17
0.0
 27
1.0
 37
0.0
 76
0
330
23
  0
DICTIONARY
  5
B9
100
AcDbDictionary
281
1
  3
DIMASSOC
350
BB
  3
HIDETEXT
350
BA
  0
DICTIONARYVAR
  5
BA
100
DictionaryVariables
280
0
  1
2
  0
DICTIONARYVAR
  5
BB
100
DictionaryVariables
280
0
  1
1
  0
ENDSEC
  0
EOF
