999
dxflib 2.2.0.0
  0
SECTION
  2
HEADER
  9
$ACADVER
  1
AC1015
  9
$HANDSEED
  5
FFFF
  9
$SPLINESEGS
 70
8
  9
$DIMEXE
 40
1.25
  9
$PSVPSCALE
 40
2.5739100000000001
  9
$DIMLUNIT
 70
2
  9
$GRIDMODE
 70
1
  9
$INSUNITS
 70
4
  9
$DIMADEC
 70
2
  9
$DIMASZ
 40
1.0
  9
$DIMGAP
 40
0.625
  9
$DIMTXT
 40
1.0
  9
$GRIDUNIT
 10
0.0
 20
0.0
  9
$DIMEXO
 40
0.625
  9
$LUPREC
 70
4
  9
$PINSBASE
 10
32.126173124999994
 20
139.0087068750000014
 30
0.0
  9
$DIMAUNIT
 70
0
  9
$AUPREC
 70
2
  9
$PLIMMIN
 10
0.0
 20
0.0
  9
$LUNITS
 70
2
  9
$PLIMMAX
 10
210.0
 20
297.0
  9
$DIMSTYLE
  2
Standard
  9
$AUNITS
 70
0
  0
ENDSEC
  0
SECTION
  2
TABLES
  0
TABLE
  2
VPORT
  5
8
100
AcDbSymbolTable
 70
1
  0
VPORT
  5
30
100
AcDbSymbolTableRecord
100
AcDbViewportTableRecord
  2
*Active
 70
0
 10
0.0
 20
0.0
 11
1.0
 21
1.0
 12
286.3055555555554861
 22
148.5
 13
0.0
 23
0.0
 14
10.0
 24
10.0
 15
10.0
 25
10.0
 16
0.0
 26
0.0
 36
1.0
 17
0.0
 27
0.0
 37
0.0
 40
297.0
 41
1.92798353909465
 42
50.0
 43
0.0
 44
0.0
 50
0.0
 51
0.0
 71
0
 72
100
 73
1
 74
3
 75
1
 76
1
 77
0
 78
0
281
0
 65
1
110
0.0
120
0.0
130
0.0
111
1.0
121
0.0
131
0.0
112
0.0
122
1.0
132
0.0
 79
0
146
0.0
  0
ENDTAB
  0
TABLE
  2
LTYPE
  5
5
100
AcDbSymbolTable
 70
21
  0
LTYPE
  5
14
100
AcDbSymbolTableRecord
100
AcDbLinetypeTableRecord
  2
ByBlock
 70
0
  3

 72
65
 73
0
 40
0.0
  0
LTYPE
  5
15
100
AcDbSymbolTableRecord
100
AcDbLinetypeTableRecord
  2
ByLayer
 70
0
  3

 72
65
 73
0
 40
0.0
  0
LTYPE
  5
16
100
AcDbSymbolTableRecord
100
AcDbLinetypeTableRecord
  2
CONTINUOUS
 70
0
  3
Solid line
 72
65
 73
0
 40
0.0
  0
LTYPE
  5
31
100
AcDbSymbolTableRecord
100
AcDbLinetypeTableRecord
  2
DOT
 70
0
  3
Dot . . . . . . . . . . . . . . . . . . . . . .
 72
65
 73
2
 40
6.3499999999999996
 49
0.0
 74
0
 49
-6.3499999999999996
 74
0
  0
LTYPE
  5
32
100
AcDbSymbolTableRecord
100
AcDbLinetypeTableRecord
  2
DOT2
 70
0
  3
Dot (.5x) .....................................
 72
65
 73
2
 40
3.1749999999999998
 49
0.0
 74
0
 49
-3.1749999999999998
 74
0
  0
LTYPE
  5
33
100
AcDbSymbolTableRecord
100
AcDbLinetypeTableRecord
  2
DOTX2
 70
0
  3
Dot (2x) .  .  .  .  .  .  .  .  .  .  .  .  .
 72
65
 73
2
 40
12.6999999999999993
 49
0.0
 74
0
 49
-12.6999999999999993
 74
0
  0
LTYPE
  5
34
100
AcDbSymbolTableRecord
100
AcDbLinetypeTableRecord
  2
DASHED
 70
0
  3
Dashed __ __ __ __ __ __ __ __ __ __ __ __ __ _
 72
65
 73
2
 40
19.0500000000000007
 49
12.6999999999999993
 74
0
 49
-6.3499999999999996
 74
0
  0
LTYPE
  5
35
100
AcDbSymbolTableRecord
100
AcDbLinetypeTableRecord
  2
DASHED2
 70
0
  3
Dashed (.5x) _ _ _ _ _ _ _ _ _ _ _ _ _ _ _ _ _
 72
65
 73
2
 40
9.5250000000000004
 49
6.3499999999999996
 74
0
 49
-3.1749999999999998
 74
0
  0
LTYPE
  5
36
100
AcDbSymbolTableRecord
100
AcDbLinetypeTableRecord
  2
DASHEDX2
 70
0
  3
Dashed (2x) ____  ____  ____  ____  ____  ___
 72
65
 73
2
 40
38.1000000000000014
 49
25.3999999999999986
 74
0
 49
-12.6999999999999993
 74
0
  0
LTYPE
  5
37
100
AcDbSymbolTableRecord
100
AcDbLinetypeTableRecord
  2
DASHDOT
 70
0
  3
Dash dot __ . __ . __ . __ . __ . __ . __ . __
 72
65
 73
4
 40
25.3999999999999986
 49
12.6999999999999993
 74
0
 49
-6.3499999999999996
 74
0
 49
0.0
 74
0
 49
-6.3499999999999996
 74
0
  0
LTYPE
  5
38
100
AcDbSymbolTableRecord
100
AcDbLinetypeTableRecord
  2
DASHDOT2
 70
0
  3
Dash dot (.5x) _._._._._._._._._._._._._._._.
 72
65
 73
4
 40
12.6999999999999993
 49
6.3499999999999996
 74
0
 49
-3.1749999999999998
 74
0
 49
0.0
 74
0
 49
-3.1749999999999998
 74
0
  0
LTYPE
  5
39
100
AcDbSymbolTableRecord
100
AcDbLinetypeTableRecord
  2
DASHDOTX2
 70
0
  3
Dash dot (2x) ____  .  ____  .  ____  .  ___
 72
65
 73
4
 40
50.7999999999999972
 49
25.3999999999999986
 74
0
 49
-12.6999999999999993
 74
0
 49
0.0
 74
0
 49
-12.6999999999999993
 74
0
  0
LTYPE
  5
3A
100
AcDbSymbolTableRecord
100
AcDbLinetypeTableRecord
  2
DIVIDE
 70
0
  3
Divide ____ . . ____ . . ____ . . ____ . . ____
 72
65
 73
6
 40
31.75
 49
12.6999999999999993
 74
0
 49
-6.3499999999999996
 74
0
 49
0.0
 74
0
 49
-6.3499999999999996
 74
0
 49
0.0
 74
0
 49
-6.3499999999999996
 74
0
  0
LTYPE
  5
3B
100
AcDbSymbolTableRecord
100
AcDbLinetypeTableRecord
  2
DIVIDE2
 70
0
  3
Divide (.5x) __..__..__..__..__..__..__..__.._
 72
65
 73
6
 40
15.875
 49
6.3499999999999996
 74
0
 49
-3.1749999999999998
 74
0
 49
0.0
 74
0
 49
-3.1749999999999998
 74
0
 49
0.0
 74
0
 49
-3.1749999999999998
 74
0
  0
LTYPE
  5
3C
100
AcDbSymbolTableRecord
100
AcDbLinetypeTableRecord
  2
DIVIDEX2
 70
0
  3
Divide (2x) ________  .  .  ________  .  .  _
 72
65
 73
6
 40
63.5
 49
25.3999999999999986
 74
0
 49
-12.6999999999999993
 74
0
 49
0.0
 74
0
 49
-12.6999999999999993
 74
0
 49
0.0
 74
0
 49
-12.6999999999999993
 74
0
  0
LTYPE
  5
3D
100
AcDbSymbolTableRecord
100
AcDbLinetypeTableRecord
  2
CENTER
 70
0
  3
Center ____ _ ____ _ ____ _ ____ _ ____ _ ____
 72
65
 73
4
 40
50.7999999999999972
 49
31.75
 74
0
 49
-6.3499999999999996
 74
0
 49
6.3499999999999996
 74
0
 49
-6.3499999999999996
 74
0
  0
LTYPE
  5
3E
100
AcDbSymbolTableRecord
100
AcDbLinetypeTableRecord
  2
CENTER2
 70
0
  3
Center (.5x) ___ _ ___ _ ___ _ ___ _ ___ _ ___
 72
65
 73
4
 40
28.5749999999999993
 49
19.0500000000000007
 74
0
 49
-3.1749999999999998
 74
0
 49
3.1749999999999998
 74
0
 49
-3.1749999999999998
 74
0
  0
LTYPE
  5
3F
100
AcDbSymbolTableRecord
100
AcDbLinetypeTableRecord
  2
CENTERX2
 70
0
  3
Center (2x) ________  __  ________  __  _____
 72
65
 73
4
 40
101.5999999999999943
 49
63.5
 74
0
 49
-12.6999999999999993
 74
0
 49
12.6999999999999993
 74
0
 49
-12.6999999999999993
 74
0
  0
LTYPE
  5
40
100
AcDbSymbolTableRecord
100
AcDbLinetypeTableRecord
  2
BORDER
 70
0
  3
Border __ __ . __ __ . __ __ . __ __ . __ __ .
 72
65
 73
6
 40
44.4500000000000028
 49
12.6999999999999993
 74
0
 49
-6.3499999999999996
 74
0
 49
12.6999999999999993
 74
0
 49
-6.3499999999999996
 74
0
 49
0.0
 74
0
 49
-6.3499999999999996
 74
0
  0
LTYPE
  5
41
100
AcDbSymbolTableRecord
100
AcDbLinetypeTableRecord
  2
BORDER2
 70
0
  3
Border (.5x) __.__.__.__.__.__.__.__.__.__.__.
 72
65
 73
6
 40
22.2250000000000014
 49
6.3499999999999996
 74
0
 49
-3.1749999999999998
 74
0
 49
6.3499999999999996
 74
0
 49
-3.1749999999999998
 74
0
 49
0.0
 74
0
 49
-3.1749999999999998
 74
0
  0
LTYPE
  5
42
100
AcDbSymbolTableRecord
100
AcDbLinetypeTableRecord
  2
BORDERX2
 70
0
  3
Border (2x) ____  ____  .  ____  ____  .  ___
 72
65
 73
6
 40
88.9000000000000057
 49
25.3999999999999986
 74
0
 49
-12.6999999999999993
 74
0
 49
25.3999999999999986
 74
0
 49
-12.6999999999999993
 74
0
 49
0.0
 74
0
 49
-12.6999999999999993
 74
0
  0
ENDTAB
  0
TABLE
  2
LAYER
  5
2
100
AcDbSymbolTable
 70
10
  0
LAYER
  5
10
100
AcDbSymbolTableRecord
100
AcDbLayerTableRecord
  2
0
 70
0
 62
7
  6
CONTINUOUS
370
0
390
F
  0
LAYER
  5
43
100
AcDbSymbolTableRecord
100
AcDbLayerTableRecord
  2
guides
 70
0
 62
1
  6
CONTINUOUS
370
0
390
F
  0
LAYER
  5
44
100
AcDbSymbolTableRecord
100
AcDbLayerTableRecord
  2
measurements
 70
1
 62
3
  6
CONTINUOUS
370
0
390
F
  0
LAYER
  5
45
100
AcDbSymbolTableRecord
100
AcDbLayerTableRecord
  2
guides_2
 70
0
 62
4
  6
CONTINUOUS
370
0
390
F
  0
LAYER
  5
46
100
AcDbSymbolTableRecord
100
AcDbLayerTableRecord
  2
guides_3
 70
0
 62
1
  6
CONTINUOUS
370
0
390
F
  0
LAYER
  5
47
100
AcDbSymbolTableRecord
100
AcDbLayerTableRecord
  2
guides_4
 70
0
 62
4
  6
CONTINUOUS
370
-3
390
F
  0
LAYER
  5
48
100
AcDbSymbolTableRecord
100
AcDbLayerTableRecord
  2
dimensions
 70
0
 62
5
  6
CONTINUOUS
370
0
390
F
  0
LAYER
  5
49
100
AcDbSymbolTableRecord
100
AcDbLayerTableRecord
  2
1.1mm_holes
 70
0
 62
7
  6
CONTINUOUS
370
0
390
F
  0
LAYER
  5
4A
100
AcDbSymbolTableRecord
100
AcDbLayerTableRecord
  2
1.0mm_holes
 70
0
 62
2
  6
CONTINUOUS
370
0
390
F
  0
LAYER
  5
4B
100
AcDbSymbolTableRecord
100
AcDbLayerTableRecord
  2
title_block
 70
0
 62
7
  6
CONTINUOUS
370
0
390
F
  0
ENDTAB
  0
TABLE
  2
STYLE
  5
3
100
AcDbSymbolTable
 70
1
  0
STYLE
  5
11
100
AcDbSymbolTableRecord
100
AcDbTextStyleTableRecord
  2
Standard
 70
0
 40
0.0
 41
0.75
 50
0.0
 71
0
 42
2.5
  3
txt
  4

  0
ENDTAB
  0
TABLE
  2
VIEW
  5
6
100
AcDbSymbolTable
 70
0
  0
ENDTAB
  0
TABLE
  2
UCS
  5
7
100
AcDbSymbolTable
 70
0
  0
ENDTAB
  0
TABLE
  2
APPID
  5
9
100
AcDbSymbolTable
 70
1
  0
APPID
  5
12
100
AcDbSymbolTableRecord
100
AcDbRegAppTableRecord
  2
ACAD
 70
0
  0
ENDTAB
  0
TABLE
  2
DIMSTYLE
  5
A
100
AcDbSymbolTable
 70
1
100
AcDbDimStyleTable
 71
0
  0
DIMSTYLE
105
27
100
AcDbSymbolTableRecord
100
AcDbDimStyleTableRecord
  2
Standard
 41
1.0
 42
0.625
 43
3.75
 44
1.25
 70
0
 73
0
 74
0
 77
1
 78
8
140
1.0
141
2.5
143
0.03937007874016
147
0.625
171
3
172
1
271
2
272
2
274
3
278
44
283
0
284
8
340
11
  0
ENDTAB
  0
TABLE
  2
BLOCK_RECORD
  5
1
100
AcDbSymbolTable
 70
1
  0
BLOCK_RECORD
  5
1F
100
AcDbSymbolTableRecord
100
AcDbBlockTableRecord
  2
*Model_Space
340
22
  0
BLOCK_RECORD
  5
1B
100
AcDbSymbolTableRecord
100
AcDbBlockTableRecord
  2
*Paper_Space
340
1E
  0
BLOCK_RECORD
  5
23
100
AcDbSymbolTableRecord
100
AcDbBlockTableRecord
  2
*Paper_Space0
340
26
  0
ENDTAB
  0
ENDSEC
  0
SECTION
  2
BLOCKS
  0
BLOCK
  5
20
100
AcDbEntity
  8
0
100
AcDbBlockBegin
  2
*Model_Space
 70
0
 10
0.0
 20
0.0
 30
0.0
  3
*Model_Space
  1

  0
ENDBLK
  5
21
100
AcDbEntity
  8
0
100
AcDbBlockEnd
  0
BLOCK
  5
1C
100
AcDbEntity
 67
1
  8
0
100
AcDbBlockBegin
  2
*Paper_Space
 70
0
 10
0.0
 20
0.0
 30
0.0
  3
*Paper_Space
  1

  0
ENDBLK
  5
1D
100
AcDbEntity
 67
1
  8
0
100
AcDbBlockEnd
  0
BLOCK
  5
24
100
AcDbEntity
  8
0
100
AcDbBlockBegin
  2
*Paper_Space0
 70
0
 10
0.0
 20
0.0
 30
0.0
  3
*Paper_Space0
  1

  0
ENDBLK
  5
25
100
AcDbEntity
  8
0
100
AcDbBlockEnd
  0
ENDSEC
  0
SECTION
  2
ENTITIES
  0
ARC
  5
4C
100
AcDbEntity
  8
guides
 62
256
370
-1
  6
ByLayer
100
AcDbCircle
 10
0.0
 20
0.0
 30
0.0
 40
0.0
100
AcDbArc
 50
0.0
 51
0.0
  0
LINE
  5
4D
100
AcDbEntity
100
AcDbLine
  8
guides
 62
256
370
-1
  6
ByLayer
 10
11.8000000000000114
 20
6.5
 30
0.0
 11
11.8000000000000114
 21
7.0
 31
0.0
  0
LINE
  5
4E
100
AcDbEntity
100
AcDbLine
  8
guides
 62
256
370
-1
  6
ByLayer
 10
6.5
 20
6.9999999999999858
 30
0.0
 11
11.7999999999999972
 21
6.9999999999999858
 31
0.0
  0
LINE
  5
4F
100
AcDbEntity
100
AcDbLine
  8
guides
 62
256
370
-1
  6
ByLayer
 10
11.7999999999999972
 20
6.9999999999999858
 30
0.0
 11
11.8000000000000114
 21
6.5
 31
0.0
  0
LINE
  5
50
100
AcDbEntity
100
AcDbLine
  8
guides
 62
256
370
-1
  6
ByLayer
 10
11.8000000000000114
 20
6.5
 30
0.0
 11
6.5
 21
6.4999999999999716
 31
0.0
  0
LINE
  5
51
100
AcDbEntity
100
AcDbLine
  8
guides
 62
256
370
-1
  6
ByLayer
 10
11.8000000000000114
 20
7.0
 30
0.0
 11
0.2800000000000011
 21
6.9999999999999858
 31
0.0
  0
LINE
  5
52
100
AcDbEntity
100
AcDbLine
  8
guides
 62
256
370
-1
  6
ByLayer
 10
0.2800000000000082
 20
6.4999999999999858
 30
0.0
 11
11.8000000000000114
 21
6.4999999999999858
 31
0.0
  0
LINE
  5
53
100
AcDbEntity
100
AcDbLine
  8
measurements
 62
256
370
-1
  6
ByLayer
 10
6.5
 20
6.7499999999999858
 30
0.0
 11
11.8000000000000114
 21
6.7499999999999858
 31
0.0
  0
ARC
  5
54
100
AcDbEntity
  8
guides
 62
256
370
-1
  6
ByLayer
100
AcDbCircle
 10
6.5
 20
6.5
 30
0.0
 40
6.2199999999999989
100
AcDbArc
 50
180.0000000000001137
 51
270.0
  0
ARC
  5
55
100
AcDbEntity
  8
guides
 62
256
370
-1
  6
ByLayer
100
AcDbCircle
 10
6.5000000000000071
 20
5.4999999999999858
 30
0.0
 40
3.8922487073669836
100
AcDbArc
 50
269.9999999999998863
 51
352.874983651098205
  0
LWPOLYLINE
  5
56
  8
measurements
 62
256
370
-1
  6
ByLayer
100
AcDbEntity
100
AcDbPolyline
 90
3
 70
0
 10
3.1999999999999886
 20
6.7499999999999858
 10
8.4999999999999929
 20
6.7499999999999858
 10
8.4999999999999929
 20
6.7499999999999858
  0
LINE
  5
57
100
AcDbEntity
100
AcDbLine
  8
guides_2
 62
256
370
-1
  6
ByLayer
 10
8.4999999999999929
 20
6.4999999999999858
 30
0.0
 11
3.1999999999999957
 21
6.4999999999999858
 31
0.0
  0
LINE
  5
58
100
AcDbEntity
100
AcDbLine
  8
guides_2
 62
256
370
-1
  6
ByLayer
 10
3.1999999999999886
 20
6.9999999999999716
 30
0.0
 11
8.4999999999999929
 21
7.0
 31
0.0
  0
LINE
  5
59
100
AcDbEntity
100
AcDbLine
  8
guides_2
 62
256
370
-1
  6
ByLayer
 10
3.1999999999999957
 20
6.5
 30
0.0
 11
3.1999999999999957
 21
7.0
 31
0.0
  0
LINE
  5
5A
100
AcDbEntity
100
AcDbLine
  8
guides
 62
256
370
-1
  6
ByLayer
 10
0.279999999999994
 20
6.9999999999999858
 30
0.0
 11
0.2800000000000011
 21
6.4999999999999858
 31
0.0
  0
LINE
  5
5B
100
AcDbEntity
100
AcDbLine
  8
measurements
 62
256
370
-1
  6
ByLayer
 10
30.5000000000000071
 20
5.2500000000000142
 30
0.0
 11
30.5000000000000071
 21
5.2500000000000142
 31
0.0
  0
LINE
  5
5C
100
AcDbEntity
100
AcDbLine
  8
measurements
 62
256
370
-1
  6
ByLayer
 10
30.5000000000000071
 20
5.2500000000000142
 30
0.0
 11
30.5000000000000071
 21
5.2500000000000142
 31
0.0
  0
LINE
  5
5D
100
AcDbEntity
100
AcDbLine
  8
measurements
 62
256
370
-1
  6
ByLayer
 10
30.5000000000000071
 20
5.2500000000000142
 30
0.0
 11
30.5000000000000071
 21
5.2500000000000142
 31
0.0
  0
LINE
  5
5E
100
AcDbEntity
100
AcDbLine
  8
measurements
 62
256
370
-1
  6
ByLayer
 10
30.5000000000000071
 20
5.2500000000000142
 30
0.0
 11
30.5000000000000071
 21
5.2500000000000142
 31
0.0
  0
LINE
  5
5F
100
AcDbEntity
100
AcDbLine
  8
guides_3
 62
256
370
-1
  6
ByLayer
 10
14.9000000000000039
 20
5.5000000000000142
 30
0.0
 11
30.5000000000000071
 21
5.5000000000000142
 31
0.0
  0
LINE
  5
60
100
AcDbEntity
100
AcDbLine
  8
guides_3
 62
256
370
-1
  6
ByLayer
 10
30.5000000000000071
 20
5.5000000000000142
 30
0.0
 11
30.5000000000000071
 21
5.0000000000000142
 31
0.0
  0
LINE
  5
61
100
AcDbEntity
100
AcDbLine
  8
guides_3
 62
256
370
-1
  6
ByLayer
 10
30.5000000000000071
 20
5.0000000000000142
 30
0.0
 11
14.9000000000000039
 21
5.0000000000000142
 31
0.0
  0
LINE
  5
62
100
AcDbEntity
100
AcDbLine
  8
guides_3
 62
256
370
-1
  6
ByLayer
 10
14.9000000000000039
 20
5.0000000000000142
 30
0.0
 11
14.9000000000000039
 21
5.5000000000000142
 31
0.0
  0
ARC
  5
63
100
AcDbEntity
  8
guides_3
 62
256
370
-1
  6
ByLayer
100
AcDbCircle
 10
21.0000000000000071
 20
5.5
 30
0.0
 40
6.1000000000000014
100
AcDbArc
 50
119.4071890607336428
 51
179.9999999999998863
  0
ARC
  5
64
100
AcDbEntity
  8
guides_3
 62
256
370
-1
  6
ByLayer
100
AcDbCircle
 10
24.4000000000000057
 20
5.5000000000000142
 30
0.0
 40
6.1000000000000014
100
AcDbArc
 50
359.9999999999998295
 51
57.528807709151458
  0
ARC
  5
65
100
AcDbEntity
  8
measurements
 62
256
370
-1
  6
ByLayer
100
AcDbCircle
 10
21.0
 20
6.0000000000000142
 30
0.0
 40
0.7500000000000142
100
AcDbArc
 50
180.0
 51
270.0000000000005684
  0
LINE
  5
66
100
AcDbEntity
100
AcDbLine
  8
measurements
 62
256
370
-1
  6
ByLayer
 10
14.9000000000000039
 20
5.2499999999999858
 30
0.0
 11
21.0000000000000071
 21
5.2499999999999858
 31
0.0
  0
LINE
  5
67
100
AcDbEntity
100
AcDbLine
  8
measurements
 62
256
370
-1
  6
ByLayer
 10
21.0000000000000071
 20
5.2499999999999858
 30
0.0
 11
24.4000000000000128
 21
5.25
 31
0.0
  0
LINE
  5
68
100
AcDbEntity
100
AcDbLine
  8
measurements
 62
256
370
-1
  6
ByLayer
 10
24.4000000000000128
 20
5.25
 30
0.0
 11
24.4000000000000128
 21
5.25
 31
0.0
  0
LINE
  5
69
100
AcDbEntity
100
AcDbLine
  8
measurements
 62
256
370
-1
  6
ByLayer
 10
24.4000000000000128
 20
5.25
 30
0.0
 11
30.5000000000000071
 21
5.25
 31
0.0
  0
ARC
  5
6A
100
AcDbEntity
  8
measurements
 62
256
370
-1
  6
ByLayer
100
AcDbCircle
 10
24.4000000000000057
 20
6.0000000000000142
 30
0.0
 40
0.7502666192761218
100
AcDbArc
 50
270.0000000000005116
 51
359.9999999999988063
  0
LINE
  5
6B
100
AcDbEntity
100
AcDbLine
  8
measurements
 62
256
370
-1
  6
ByLayer
 10
20.2500000000000071
 20
6.0
 30
0.0
 11
20.2500000000000142
 21
10.9000000000000057
 31
0.0
  0
LINE
  5
6C
100
AcDbEntity
100
AcDbLine
  8
measurements
 62
256
370
-1
  6
ByLayer
 10
25.1500000000000128
 20
6.0
 30
0.0
 11
25.1500000000000057
 21
10.8999999999999915
 31
0.0
  0
ARC
  5
6D
100
AcDbEntity
  8
guides_3
 62
256
370
-1
  6
ByLayer
100
AcDbCircle
 10
21.0000000000000071
 20
6.0
 30
0.0
 40
1.0
100
AcDbArc
 50
180.0
 51
270.0
  0
ARC
  5
6E
100
AcDbEntity
  8
guides_3
 62
256
370
-1
  6
ByLayer
100
AcDbCircle
 10
21.0000000000000071
 20
6.0
 30
0.0
 40
0.5
100
AcDbArc
 50
180.0
 51
270.0
  0
ARC
  5
6F
100
AcDbEntity
  8
guides_3
 62
256
370
-1
  6
ByLayer
100
AcDbCircle
 10
24.4000000000000057
 20
6.0000000000000142
 30
0.0
 40
1.0
100
AcDbArc
 50
270.0
 51
0.0
  0
ARC
  5
70
100
AcDbEntity
  8
guides_3
 62
256
370
-1
  6
ByLayer
100
AcDbCircle
 10
24.4000000000000057
 20
6.0000000000000142
 30
0.0
 40
0.5
100
AcDbArc
 50
270.0
 51
0.0
  0
LINE
  5
71
100
AcDbEntity
100
AcDbLine
  8
guides_3
 62
256
370
-1
  6
ByLayer
 10
20.0000000000000071
 20
6.0
 30
0.0
 11
20.0000000000000071
 21
10.9000000000000057
 31
0.0
  0
LINE
  5
72
100
AcDbEntity
100
AcDbLine
  8
guides_3
 62
256
370
-1
  6
ByLayer
 10
20.0000000000000071
 20
10.9000000000000057
 30
0.0
 11
20.5000000000000071
 21
10.9000000000000057
 31
0.0
  0
LINE
  5
73
100
AcDbEntity
100
AcDbLine
  8
guides_3
 62
256
370
-1
  6
ByLayer
 10
20.5000000000000071
 20
10.9000000000000057
 30
0.0
 11
20.5000000000000071
 21
6.0000000000000142
 31
0.0
  0
LINE
  5
74
100
AcDbEntity
100
AcDbLine
  8
guides_3
 62
256
370
-1
  6
ByLayer
 10
24.9000000000000128
 20
6.0
 30
0.0
 11
24.9000000000000057
 21
10.9000000000000057
 31
0.0
  0
LINE
  5
75
100
AcDbEntity
100
AcDbLine
  8
guides_3
 62
256
370
-1
  6
ByLayer
 10
24.9000000000000057
 20
10.9000000000000057
 30
0.0
 11
25.4000000000000057
 21
10.9000000000000057
 31
0.0
  0
LINE
  5
76
100
AcDbEntity
100
AcDbLine
  8
guides_3
 62
256
370
-1
  6
ByLayer
 10
25.4000000000000057
 20
10.9000000000000057
 30
0.0
 11
25.4000000000000057
 21
6.0000000000000142
 31
0.0
  0
LINE
  5
77
100
AcDbEntity
100
AcDbLine
  8
measurements
 62
256
370
-1
  6
ByLayer
 10
33.8500000000000085
 20
4.3000000000000007
 30
0.0
 11
33.8500000000000085
 21
4.3000000000000007
 31
0.0
  0
LINE
  5
78
100
AcDbEntity
100
AcDbLine
  8
measurements
 62
256
370
-1
  6
ByLayer
 10
33.8500000000000085
 20
4.3000000000000007
 30
0.0
 11
33.8500000000000085
 21
4.3000000000000007
 31
0.0
  0
LINE
  5
79
100
AcDbEntity
100
AcDbLine
  8
guides_4
 62
256
370
-1
  6
ByLayer
 10
38.0
 20
4.8000000000000149
 30
0.0
 11
34.6000000000000014
 21
4.8000000000000149
 31
0.0
  0
LINE
  5
7A
100
AcDbEntity
100
AcDbLine
  8
guides_4
 62
256
370
-1
  6
ByLayer
 10
34.6000000000000014
 20
4.3000000000000149
 30
0.0
 11
38.0
 21
4.3000000000000149
 31
0.0
  0
LINE
  5
7B
100
AcDbEntity
100
AcDbLine
  8
guides_4
 62
256
370
-1
  6
ByLayer
 10
38.5
 20
5.3000000000000291
 30
0.0
 11
38.5000000000000071
 21
10.2000000000000206
 31
0.0
  0
LINE
  5
7C
100
AcDbEntity
100
AcDbLine
  8
guides_4
 62
256
370
-1
  6
ByLayer
 10
38.5000000000000071
 20
10.2000000000000206
 30
0.0
 11
39.0000000000000071
 21
10.2000000000000206
 31
0.0
  0
LINE
  5
7D
100
AcDbEntity
100
AcDbLine
  8
guides_4
 62
256
370
-1
  6
ByLayer
 10
34.1000000000000014
 20
5.3000000000000149
 30
0.0
 11
34.1000000000000014
 21
10.2000000000000206
 31
0.0
  0
LINE
  5
7E
100
AcDbEntity
100
AcDbLine
  8
guides_4
 62
256
370
-1
  6
ByLayer
 10
34.1000000000000014
 20
10.2000000000000206
 30
0.0
 11
33.6000000000000014
 21
10.2000000000000206
 31
0.0
  0
LINE
  5
7F
100
AcDbEntity
100
AcDbLine
  8
guides_4
 62
256
370
-1
  6
ByLayer
 10
39.0000000000000071
 20
10.2000000000000206
 30
0.0
 11
39.0
 21
5.3000000000000149
 31
0.0
  0
LINE
  5
80
100
AcDbEntity
100
AcDbLine
  8
guides_4
 62
256
370
-1
  6
ByLayer
 10
33.6000000000000014
 20
10.2000000000000206
 30
0.0
 11
33.5999999999999943
 21
5.3000000000000149
 31
0.0
  0
ARC
  5
81
100
AcDbEntity
  8
guides_4
 62
256
370
-1
  6
ByLayer
100
AcDbCircle
 10
38.0
 20
5.3000000000000149
 30
0.0
 40
0.5
100
AcDbArc
 50
270.0
 51
360.0
  0
ARC
  5
82
100
AcDbEntity
  8
guides_4
 62
256
370
-1
  6
ByLayer
100
AcDbCircle
 10
38.0
 20
5.3000000000000149
 30
0.0
 40
1.0
100
AcDbArc
 50
270.0
 51
360.0
  0
ARC
  5
83
100
AcDbEntity
  8
guides_4
 62
256
370
-1
  6
ByLayer
100
AcDbCircle
 10
34.6000000000000014
 20
5.3000000000000149
 30
0.0
 40
0.5
100
AcDbArc
 50
180.0
 51
270.0
  0
ARC
  5
84
100
AcDbEntity
  8
guides_4
 62
256
370
-1
  6
ByLayer
100
AcDbCircle
 10
34.6000000000000014
 20
5.3000000000000149
 30
0.0
 40
1.0
100
AcDbArc
 50
180.0
 51
270.0
  0
LINE
  5
85
100
AcDbEntity
100
AcDbLine
  8
measurements
 62
256
370
-1
  6
ByLayer
 10
34.5999999999999872
 20
4.5499999999999865
 30
0.0
 11
37.9999999999999858
 21
4.5499999999999865
 31
0.0
  0
LINE
  5
86
100
AcDbEntity
100
AcDbLine
  8
measurements
 62
256
370
-1
  6
ByLayer
 10
38.7499999999999858
 20
5.2999999999999865
 30
0.0
 11
38.7499999999999858
 21
10.199999999999978
 31
0.0
  0
LINE
  5
87
100
AcDbEntity
100
AcDbLine
  8
measurements
 62
256
370
-1
  6
ByLayer
 10
33.8499999999999872
 20
10.1999999999999922
 30
0.0
 11
33.8499999999999872
 21
5.2999999999999865
 31
0.0
  0
ARC
  5
88
100
AcDbEntity
  8
measurements
 62
256
370
-1
  6
ByLayer
100
AcDbCircle
 10
34.5999999999999872
 20
5.2999999999999865
 30
0.0
 40
0.75
100
AcDbArc
 50
180.0
 51
270.0
  0
ARC
  5
89
100
AcDbEntity
  8
measurements
 62
256
370
-1
  6
ByLayer
100
AcDbCircle
 10
37.9999999999999858
 20
5.2999999999999865
 30
0.0
 40
0.75
100
AcDbArc
 50
270.0
 51
359.99999999999892
  0
ARC
  5
8A
100
AcDbEntity
  8
measurements
 62
256
370
-1
  6
ByLayer
100
AcDbCircle
 10
33.0999999999999872
 20
5.3000000000000007
 30
0.0
 40
0.7500000000000071
100
AcDbArc
 50
359.99999999999892
 51
90.0
  0
ARC
  5
8B
100
AcDbEntity
  8
measurements
 62
256
370
-1
  6
ByLayer
100
AcDbCircle
 10
39.4999999999999929
 20
5.2999999999999865
 30
0.0
 40
0.75
100
AcDbArc
 50
90.0000000000006111
 51
179.9999999999986642
  0
LINE
  5
8C
100
AcDbEntity
100
AcDbLine
  8
measurements
 62
256
370
-1
  6
ByLayer
 10
39.4999999999999858
 20
6.0499999999999723
 30
0.0
 11
43.2999999999999901
 21
6.0499999999999865
 31
0.0
  0
LINE
  5
8D
100
AcDbEntity
100
AcDbLine
  8
measurements
 62
256
370
-1
  6
ByLayer
 10
33.0999999999999872
 20
6.0499999999999865
 30
0.0
 11
29.2999999999999829
 21
6.0499999999999865
 31
0.0
  0
LINE
  5
8E
100
AcDbEntity
100
AcDbLine
  8
guides_4
 62
256
370
-1
  6
ByLayer
 10
33.0999999999999872
 20
5.8000000000000007
 30
0.0
 11
29.2999999999999901
 21
5.8000000000000007
 31
0.0
  0
LINE
  5
8F
100
AcDbEntity
100
AcDbLine
  8
guides_4
 62
256
370
-1
  6
ByLayer
 10
29.2999999999999901
 20
5.8000000000000007
 30
0.0
 11
29.2999999999999901
 21
6.3000000000000007
 31
0.0
  0
LINE
  5
90
100
AcDbEntity
100
AcDbLine
  8
guides_4
 62
256
370
-1
  6
ByLayer
 10
29.2999999999999901
 20
6.3000000000000007
 30
0.0
 11
33.0999999999999872
 21
6.3000000000000007
 31
0.0
  0
LINE
  5
91
100
AcDbEntity
100
AcDbLine
  8
guides_4
 62
256
370
-1
  6
ByLayer
 10
39.4999999999999858
 20
5.8000000000000007
 30
0.0
 11
43.2999999999999829
 21
5.8000000000000007
 31
0.0
  0
LINE
  5
92
100
AcDbEntity
100
AcDbLine
  8
guides_4
 62
256
370
-1
  6
ByLayer
 10
43.2999999999999829
 20
5.8000000000000007
 30
0.0
 11
43.2999999999999829
 21
6.3000000000000007
 31
0.0
  0
LINE
  5
93
100
AcDbEntity
100
AcDbLine
  8
guides_4
 62
256
370
-1
  6
ByLayer
 10
43.2999999999999829
 20
6.3000000000000007
 30
0.0
 11
39.4999999999999858
 21
6.3000000000000007
 31
0.0
  0
ARC
  5
94
100
AcDbEntity
  8
guides_4
 62
256
370
-1
  6
ByLayer
100
AcDbCircle
 10
39.4999999999999858
 20
5.2999999999999865
 30
0.0
 40
1.0
100
AcDbArc
 50
90.0
 51
180.0
  0
ARC
  5
95
100
AcDbEntity
  8
guides_4
 62
256
370
-1
  6
ByLayer
100
AcDbCircle
 10
39.4999999999999858
 20
5.2999999999999865
 30
0.0
 40
0.5
100
AcDbArc
 50
90.0
 51
180.0
  0
ARC
  5
96
100
AcDbEntity
  8
guides_4
 62
256
370
-1
  6
ByLayer
100
AcDbCircle
 10
33.0999999999999872
 20
5.2999999999999865
 30
0.0
 40
0.5
100
AcDbArc
 50
0.0
 51
90.0
  0
ARC
  5
97
100
AcDbEntity
  8
guides_4
 62
256
370
-1
  6
ByLayer
100
AcDbCircle
 10
33.0999999999999872
 20
5.2999999999999865
 30
0.0
 40
1.0
100
AcDbArc
 50
0.0
 51
90.0
  0
ARC
  5
98
100
AcDbEntity
  8
guides_4
 62
256
370
-1
  6
ByLayer
100
AcDbCircle
 10
33.5999999999999801
 20
5.3000000000000007
 30
0.0
 40
4.8999999999999915
100
AcDbArc
 50
89.9999999999999005
 51
127.7756843059547265
  0
ARC
  5
99
100
AcDbEntity
  8
guides_4
 62
256
370
-1
  6
ByLayer
100
AcDbCircle
 10
38.9999999999999858
 20
5.2999999999999865
 30
0.0
 40
4.9000000000000057
100
AcDbArc
 50
48.8140748342903734
 51
90.0
  0
LINE
  5
9A
100
AcDbEntity
100
AcDbLine
  8
0
 62
256
370
-1
  6
ByLayer
 10
0.0
 20
0.0
 30
0.0
 11
60.0
 21
0.0
 31
0.0
  0
LINE
  5
9B
100
AcDbEntity
100
AcDbLine
  8
0
 62
256
370
-1
  6
ByLayer
 10
60.0
 20
0.0
 30
0.0
 11
60.0
 21
15.0
 31
0.0
  0
LINE
  5
9C
100
AcDbEntity
100
AcDbLine
  8
0
 62
256
370
-1
  6
ByLayer
 10
60.0
 20
15.0
 30
0.0
 11
0.0
 21
15.0
 31
0.0
  0
LINE
  5
9D
100
AcDbEntity
100
AcDbLine
  8
0
 62
256
370
-1
  6
ByLayer
 10
0.0
 20
15.0
 30
0.0
 11
0.0
 21
0.0
 31
0.0
  0
CIRCLE
  5
9E
100
AcDbEntity
100
AcDbCircle
  8
0
 62
256
370
-1
  6
ByLayer
 10
54.0
 20
9.0
 30
0.0
 40
3.5
  0
DIMENSION
  5
9F
100
AcDbEntity
  8
dimensions
 62
256
370
-1
  6
ByLayer
100
AcDbDimension
 10
51.3167184270002537
 20
10.3416407864998732
 30
0.0
 11
54.5031152949374516
 21
10.0062305898749067
 31
0.0
 70
3
 71
5
 72
0
 41
1.0
 42
0.0
  1
7\S8.0^ 6.5;
  3
Standard
100
AcDbDiametricDimension
 15
56.6832815729997463
 25
7.6583592135001259
 35
0.0
 40
0.0
  0
DIMENSION
  5
A0
100
AcDbEntity
  8
dimensions
 62
256
370
-1
  6
ByLayer
100
AcDbDimension
 10
60.0
 20
21.0
 30
0.0
 11
30.0
 21
22.125
 31
0.0
 70
0
 71
5
 72
0
 41
1.0
 42
0.0
  1
60\S80^ 60;
  3
Standard
100
AcDbAlignedDimension
 13
0.0
 23
15.0
 33
0.0
 14
60.0
 24
15.0
 34
0.0
 50
0.0
100
AcDbRotatedDimension
  0
DIMENSION
  5
A1
100
AcDbEntity
  8
dimensions
 62
256
370
-1
  6
ByLayer
100
AcDbDimension
 10
60.0
 20
17.0
 30
0.0
 11
57.0
 21
18.125
 31
0.0
 70
0
 71
5
 72
0
 41
1.0
 42
0.0
  1
6\S9.0^ 6.0;
  3
Standard
100
AcDbAlignedDimension
 13
54.0
 23
12.5
 33
0.0
 14
60.0
 24
15.0
 34
0.0
 50
0.0
100
AcDbRotatedDimension
  0
DIMENSION
  5
A2
100
AcDbEntity
  8
dimensions
 62
256
370
-1
  6
ByLayer
100
AcDbDimension
 10
63.0
 20
15.0
 30
0.0
 11
61.875
 21
12.0
 31
0.0
 70
0
 71
5
 72
0
 41
1.0
 42
0.0
  1
6\S9.0^ 6.0;
  3
Standard
100
AcDbAlignedDimension
 13
57.5
 23
9.0
 33
0.0
 14
60.0
 24
15.0
 34
0.0
 50
90.0
100
AcDbRotatedDimension
  0
LINE
  5
A3
100
AcDbEntity
100
AcDbLine
  8
measurements
 62
256
370
-1
  6
ByLayer
 10
7.4499999999999993
 20
8.3499999999999979
 30
0.0
 11
8.4499999999999993
 21
8.3499999999999979
 31
0.0
  0
CIRCLE
  5
A4
100
AcDbEntity
100
AcDbCircle
  8
1.1mm_holes
 62
256
370
-1
  6
ByLayer
 10
8.4499999999999993
 20
7.5499999999999998
 30
0.0
 40
0.5499999999999989
  0
CIRCLE
  5
A5
100
AcDbEntity
100
AcDbCircle
  8
1.1mm_holes
 62
256
370
-1
  6
ByLayer
 10
6.5499999999999998
 20
5.9500000000000002
 30
0.0
 40
0.5499999999999998
  0
CIRCLE
  5
A6
100
AcDbEntity
100
AcDbCircle
  8
1.1mm_holes
 62
256
370
-1
  6
ByLayer
 10
9.75
 20
5.9500000000000002
 30
0.0
 40
0.5499999999999998
  0
LINE
  5
A7
100
AcDbEntity
100
AcDbLine
  8
guides
 62
256
370
-1
  6
ByLayer
 10
6.5600000000000005
 20
5.4000000000000004
 30
0.0
 11
10.3600000000000012
 21
5.4000000000000004
 31
0.0
  0
ARC
  5
A8
100
AcDbEntity
  8
guides
 62
256
370
-1
  6
ByLayer
100
AcDbCircle
 10
6.5250000000000004
 20
5.9500000000000002
 30
0.0
 40
1.05029757688
100
AcDbArc
 50
91.3639275316029398
 51
271.3639275316029398
  0
LINE
  5
A9
100
AcDbEntity
100
AcDbLine
  8
guides
 62
256
370
-1
  6
ByLayer
 10
10.3600000000000012
 20
4.9000000000000004
 30
0.0
 11
6.5500000000000007
 21
4.9000000000000004
 31
0.0
  0
ARC
  5
AA
100
AcDbEntity
  8
measurements
 62
256
370
-1
  6
ByLayer
100
AcDbCircle
 10
6.5250000000000039
 20
5.9499999999999931
 30
0.0
 40
0.8003905296790987
100
AcDbArc
 50
91.7899106082458616
 51
271.7899106082458616
  0
LINE
  5
AB
100
AcDbEntity
100
AcDbLine
  8
measurements
 62
256
370
-1
  6
ByLayer
 10
6.5500000000000007
 20
5.1500000000000004
 30
0.0
 11
10.3600000000000012
 21
5.1500000000000004
 31
0.0
  0
LINE
  5
AC
100
AcDbEntity
100
AcDbLine
  8
guides
 62
256
370
-1
  6
ByLayer
 10
10.3600000000000012
 20
5.4000000000000004
 30
0.0
 11
10.3600000000000012
 21
4.9000000000000004
 31
0.0
  0
DIMENSION
  5
AD
100
AcDbEntity
  8
dimensions
 62
256
370
-1
  6
ByLayer
100
AcDbDimension
 10
7.0839748528310791
 20
8.8226499018873863
 30
0.0
 11
6.8759622792466155
 21
10.0360565811300742
 31
0.0
 70
3
 71
5
 72
0
 41
1.0
 42
0.0
  1
%%c1.00%%p\S.025^ ;
  3
Standard
100
AcDbDiametricDimension
 15
7.9160251471689209
 25
9.3773500981126165
 35
0.0
 40
0.0
  0
ARC
  5
AE
100
AcDbEntity
  8
measurements
 62
256
370
-1
  6
ByLayer
100
AcDbCircle
 10
7.4999999999999938
 20
9.0999999999999872
 30
0.0
 40
0.7500000000000142
100
AcDbArc
 50
90.0
 51
270.0000000000005116
  0
LINE
  5
AF
100
AcDbEntity
100
AcDbLine
  8
measurements
 62
256
370
-1
  6
ByLayer
 10
7.4999999999999938
 20
9.8499999999999872
 30
0.0
 11
8.0
 21
9.8499999999999872
 31
0.0
  0
ARC
  5
B0
100
AcDbEntity
  8
guides_2
 62
256
370
-1
  6
ByLayer
100
AcDbCircle
 10
7.4999999999999938
 20
9.1000000000000014
 30
0.0
 40
1.0
100
AcDbArc
 50
90.0
 51
270.0
  0
LINE
  5
B1
100
AcDbEntity
100
AcDbLine
  8
guides_2
 62
256
370
-1
  6
ByLayer
 10
7.5000000000000009
 20
10.1000000000000014
 30
0.0
 11
7.9999999999999938
 21
10.0999999999999872
 31
0.0
  0
LINE
  5
B2
100
AcDbEntity
100
AcDbLine
  8
guides_2
 62
256
370
-1
  6
ByLayer
 10
7.9999999999999938
 20
10.0999999999999872
 30
0.0
 11
7.9999999999999938
 21
9.5999999999999872
 31
0.0
  0
LINE
  5
B3
100
AcDbEntity
100
AcDbLine
  8
guides_2
 62
256
370
-1
  6
ByLayer
 10
7.9999999999999938
 20
9.5999999999999872
 30
0.0
 11
7.4999999999999938
 21
9.5999999999999872
 31
0.0
  0
ARC
  5
B4
100
AcDbEntity
  8
guides_2
 62
256
370
-1
  6
ByLayer
100
AcDbCircle
 10
7.4999999999999938
 20
9.0999999999999872
 30
0.0
 40
0.5
100
AcDbArc
 50
90.0
 51
270.0
  0
LINE
  5
B5
100
AcDbEntity
100
AcDbLine
  8
measurements
 62
256
370
-1
  6
ByLayer
 10
7.5
 20
8.3500000000000014
 30
0.0
 11
4.6499999999999986
 21
8.3500000000000014
 31
0.0
  0
ARC
  5
B6
100
AcDbEntity
  8
measurements
 62
256
370
-1
  6
ByLayer
100
AcDbCircle
 10
8.4749999999999943
 20
7.5499999999999927
 30
0.0
 40
0.8003905296791128
100
AcDbArc
 50
271.7899106082454637
 51
91.7899106082455489
  0
ARC
  5
B7
100
AcDbEntity
  8
guides_2
 62
256
370
-1
  6
ByLayer
100
AcDbCircle
 10
8.4749999999999979
 20
7.5499999999999865
 30
0.0
 40
1.0502975768800151
100
AcDbArc
 50
271.3639275316026556
 51
91.3639275316027408
  0
LINE
  5
B8
100
AcDbEntity
100
AcDbLine
  8
guides_2
 62
256
370
-1
  6
ByLayer
 10
4.6500000000000004
 20
8.6000000000000014
 30
0.0
 11
8.4500000000000011
 21
8.6000000000000014
 31
0.0
  0
LINE
  5
B9
100
AcDbEntity
100
AcDbLine
  8
measurements
 62
256
370
-1
  6
ByLayer
 10
3.2000000000000002
 20
6.75
 30
0.0
 11
0.2800000000000011
 21
6.7499999999999858
 31
0.0
  0
CIRCLE
  5
BA
100
AcDbEntity
100
AcDbCircle
  8
1.1mm_holes
 62
256
370
-1
  6
ByLayer
 10
12.3500000000000014
 20
6.75
 30
0.0
 40
0.5499999999999998
  0
CIRCLE
  5
BB
100
AcDbEntity
100
AcDbCircle
  8
1.0mm_holes
 62
256
370
-1
  6
ByLayer
 10
21.0000000000000071
 20
6.0000000000000142
 30
0.0
 40
0.5
  0
CIRCLE
  5
BC
100
AcDbEntity
100
AcDbCircle
  8
1.0mm_holes
 62
256
370
-1
  6
ByLayer
 10
21.0000000000000071
 20
7.7000000000000028
 30
0.0
 40
0.5
  0
CIRCLE
  5
BD
100
AcDbEntity
100
AcDbCircle
  8
1.0mm_holes
 62
256
370
-1
  6
ByLayer
 10
22.7000000000000028
 20
4.5
 30
0.0
 40
0.5
  0
CIRCLE
  5
BE
100
AcDbEntity
100
AcDbCircle
  8
1.0mm_holes
 62
256
370
-1
  6
ByLayer
 10
36.2999999999999901
 20
3.8000000000000007
 30
0.0
 40
0.5
  0
CIRCLE
  5
BF
100
AcDbEntity
100
AcDbCircle
  8
1.0mm_holes
 62
256
370
-1
  6
ByLayer
 10
31.0
 20
5.3000000000000007
 30
0.0
 40
0.5
  0
CIRCLE
  5
C0
100
AcDbEntity
100
AcDbCircle
  8
1.0mm_holes
 62
256
370
-1
  6
ByLayer
 10
41.6000000000000014
 20
5.3000000000000007
 30
0.0
 40
0.5
  0
CIRCLE
  5
C1
100
AcDbEntity
100
AcDbCircle
  8
1.0mm_holes
 62
256
370
-1
  6
ByLayer
 10
33.0999999999999872
 20
5.2999999999999865
 30
0.0
 40
0.5
  0
CIRCLE
  5
C2
100
AcDbEntity
100
AcDbCircle
  8
1.0mm_holes
 62
256
370
-1
  6
ByLayer
 10
39.4999999999999858
 20
5.2999999999999865
 30
0.0
 40
0.5
  0
CIRCLE
  5
C3
100
AcDbEntity
100
AcDbCircle
  8
1.0mm_holes
 62
256
370
-1
  6
ByLayer
 10
7.5000000000000071
 20
9.1000000000000014
 30
0.0
 40
0.5
  0
CIRCLE
  5
C4
100
AcDbEntity
100
AcDbCircle
  8
1.0mm_holes
 62
256
370
-1
  6
ByLayer
 10
34.6099999999999994
 20
5.2999999999999998
 30
0.0
 40
0.5
  0
CIRCLE
  5
C5
100
AcDbEntity
100
AcDbCircle
  8
1.0mm_holes
 62
256
370
-1
  6
ByLayer
 10
37.990000000000002
 20
5.3000000000000007
 30
0.0
 40
0.5
  0
CIRCLE
  5
C6
100
AcDbEntity
100
AcDbCircle
  8
1.0mm_holes
 62
256
370
-1
  6
ByLayer
 10
24.3900000000000006
 20
6.0000000000000009
 30
0.0
 40
0.5
  0
CIRCLE
  5
C7
100
AcDbEntity
100
AcDbCircle
  8
1.0mm_holes
 62
256
370
-1
  6
ByLayer
 10
24.3900000000000006
 20
7.7000000000000179
 30
0.0
 40
0.5
  0
DIMENSION
  5
C8
100
AcDbEntity
  8
dimensions
 62
256
370
-1
  6
ByLayer
100
AcDbDimension
 10
11.9115993185152966
 20
6.417878271602496
 30
0.0
 11
11.6706601010051063
 21
7.6467286666732619
 31
0.0
 70
3
 71
5
 72
0
 41
1.0
 42
0.0
  1
%%c1.10%%p\S.025^ ;
  3
Standard
100
AcDbDiametricDimension
 15
12.7884006814847062
 25
7.082121728397504
 35
0.0
 40
0.0
  0
LINE
  5
C9
100
AcDbEntity
100
AcDbLine
  8
guides_2
 62
256
370
-1
  6
ByLayer
 10
4.6500000000000004
 20
8.1000000000000156
 30
0.0
 11
4.6500000000000004
 21
8.6000000000000014
 31
0.0
  0
LINE
  5
CA
100
AcDbEntity
100
AcDbLine
  8
guides_2
 62
256
370
-1
  6
ByLayer
 10
8.4500000000000011
 20
8.0999999999999996
 30
0.0
 11
4.6500000000000004
 21
8.1000000000000014
 31
0.0
  0
ARC
  5
CB
100
AcDbEntity
  8
guides_2
 62
256
370
-1
  6
ByLayer
100
AcDbCircle
 10
7.7099242404917501
 20
8.3825378797541283
 30
0.0
 40
3.0676417866646091
100
AcDbArc
 50
130.9349488229220242
 51
175.934948822922081
  0
LINE
  5
CC
100
AcDbEntity
100
AcDbLine
  8
dimensions
 62
256
370
-1
  6
ByLayer
 10
7.2000000000000002
 20
5.9500000000000002
 30
0.0
 11
9.1000000000000014
 21
5.9500000000000002
 31
0.0
  0
DIMENSION
  5
CD
100
AcDbEntity
  8
dimensions
 62
256
370
-1
  6
ByLayer
100
AcDbDimension
 10
12.0
 20
-10.0
 30
0.0
 11
9.4500000000000011
 21
-8.875
 31
0.0
 70
0
 71
5
 72
0
 41
1.0
 42
0.0
  1

  3
Standard
100
AcDbAlignedDimension
 13
6.5499999999999998
 23
5.9500000000000002
 33
0.0
 14
12.3500000000000014
 24
6.75
 34
0.0
 50
0.0
100
AcDbRotatedDimension
  0
DIMENSION
  5
CE
100
AcDbEntity
  8
dimensions
 62
256
370
-1
  6
ByLayer
100
AcDbDimension
 10
8.0
 20
-2.0
 30
0.0
 11
2.0
 21
-2.0
 31
0.0
 70
0
 71
5
 72
0
 41
1.0
 42
0.0
  1

  3
Standard
100
AcDbAlignedDimension
 13
6.5499999999999998
 23
5.9500000000000002
 33
0.0
 14
8.4499999999999993
 24
7.5499999999999998
 34
0.0
 50
0.0
100
AcDbRotatedDimension
  0
DIMENSION
  5
CF
100
AcDbEntity
  8
dimensions
 62
256
370
-1
  6
ByLayer
100
AcDbDimension
 10
10.0
 20
-6.0
 30
0.0
 11
3.0
 21
-6.0
 31
0.0
 70
0
 71
5
 72
0
 41
1.0
 42
0.0
  1

  3
Standard
100
AcDbAlignedDimension
 13
6.5499999999999998
 23
5.9500000000000002
 33
0.0
 14
9.75
 24
5.9500000000000002
 34
0.0
 50
0.0
100
AcDbRotatedDimension
  0
DIMENSION
  5
D0
100
AcDbEntity
  8
dimensions
 62
256
370
-1
  6
ByLayer
100
AcDbDimension
 10
-0.5999999999999996
 20
9.1000000000000032
 30
0.0
 11
-1.7249999999999996
 21
8.3250000000000011
 31
0.0
 70
0
 71
5
 72
0
 41
1.0
 42
0.0
  1
1.55%%p\S.025^ ;
  3
Standard
100
AcDbAlignedDimension
 13
8.4499999999999993
 23
7.5499999999999998
 33
0.0
 14
7.5
 24
9.1000000000000014
 34
0.0
 50
90.0
100
AcDbRotatedDimension
  0
DIMENSION
  5
D1
100
AcDbEntity
  8
dimensions
 62
256
370
-1
  6
ByLayer
100
AcDbDimension
 10
2.0000000000000009
 20
7.5500000000000007
 30
0.0
 11
1.0
 21
8.0
 31
0.0
 70
0
 71
5
 72
0
 41
1.0
 42
0.0
  1
1.60%%p\S.025^ ;
  3
Standard
100
AcDbAlignedDimension
 13
6.5499999999999998
 23
5.9500000000000002
 33
0.0
 14
8.4499999999999993
 24
7.5499999999999998
 34
0.0
 50
90.0
100
AcDbRotatedDimension
  0
DIMENSION
  5
D2
100
AcDbEntity
  8
dimensions
 62
256
370
-1
  6
ByLayer
100
AcDbDimension
 10
4.5
 20
6.7000000000000011
 30
0.0
 11
3.5000000000000004
 21
0.2000000000000002
 31
0.0
 70
0
 71
5
 72
0
 41
1.0
 42
0.0
  1
0.80%%p\S.025^ ;
  3
Standard
100
AcDbAlignedDimension
 13
6.5499999999999998
 23
5.9500000000000002
 33
0.0
 14
12.3500000000000014
 24
6.75
 34
0.0
 50
90.0
100
AcDbRotatedDimension
  0
DIMENSION
  5
D3
100
AcDbEntity
  8
dimensions
 62
256
370
-1
  6
ByLayer
100
AcDbDimension
 10
7.5000000000000009
 20
18.0
 30
0.0
 11
7.0250000000000004
 21
19.125
 31
0.0
 70
0
 71
5
 72
0
 41
1.0
 42
0.0
  1
0.95\S.025^ .05;
  3
Standard
100
AcDbAlignedDimension
 13
6.5499999999999998
 23
5.9500000000000002
 33
0.0
 14
7.5
 24
9.1000000000000014
 34
0.0
 50
0.0
100
AcDbRotatedDimension
  0
DIMENSION
  5
D4
100
AcDbEntity
  8
dimensions
 62
256
370
-1
  6
ByLayer
100
AcDbDimension
 10
-6.0
 20
0.0
 30
0.0
 11
-7.125
 21
7.5
 31
0.0
 70
0
 71
5
 72
0
 41
1.0
 42
0.0
  1
15\S30^ 15;
  3
Standard
100
AcDbAlignedDimension
 13
0.0
 23
15.0
 33
0.0
 14
0.0
 24
0.0
 34
0.0
 50
90.0
100
AcDbRotatedDimension
  0
LINE
  5
D5
100
AcDbEntity
100
AcDbLine
  8
dimensions
 62
256
370
-1
  6
ByLayer
 10
21.0
 20
6.6000000000000014
 30
0.0
 11
21.0
 21
7.1000000000000014
 31
0.0
  0
LINE
  5
D6
100
AcDbEntity
100
AcDbLine
  8
dimensions
 62
256
370
-1
  6
ByLayer
 10
24.4000000000000021
 20
7.1000000000000014
 30
0.0
 11
24.4000000000000021
 21
6.6000000000000014
 31
0.0
  0
LINE
  5
D7
100
AcDbEntity
100
AcDbLine
  8
dimensions
 62
256
370
-1
  6
ByLayer
 10
21.6000000000000014
 20
6.0
 30
0.0
 11
23.8000000000000007
 21
6.0
 31
0.0
  0
LINE
  5
D8
100
AcDbEntity
100
AcDbLine
  8
dimensions
 62
256
370
-1
  6
ByLayer
 10
23.8000000000000007
 20
7.7000000000000002
 30
0.0
 11
21.6000000000000014
 21
7.7000000000000002
 31
0.0
  0
DIMENSION
  5
D9
100
AcDbEntity
  8
dimensions
 62
256
370
-1
  6
ByLayer
100
AcDbDimension
 10
19.0
 20
4.5000000000000009
 30
0.0
 11
17.875
 21
4.9000000000000004
 31
0.0
 70
0
 71
5
 72
0
 41
1.0
 42
0.0
  1

  3
Standard
100
AcDbAlignedDimension
 13
31.0
 23
5.3000000000000007
 33
0.0
 14
22.7000000000000028
 24
4.5
 34
0.0
 50
90.0
100
AcDbRotatedDimension
  0
DIMENSION
  5
DA
100
AcDbEntity
  8
dimensions
 62
256
370
-1
  6
ByLayer
100
AcDbDimension
 10
23.0
 20
-2.0
 30
0.0
 11
26.8500000000000014
 21
-0.875
 31
0.0
 70
0
 71
5
 72
0
 41
1.0
 42
0.0
  1

  3
Standard
100
AcDbAlignedDimension
 13
31.0
 23
5.3000000000000007
 33
0.0
 14
22.7000000000000028
 24
4.5
 34
0.0
 50
0.0
100
AcDbRotatedDimension
  0
DIMENSION
  5
DB
100
AcDbEntity
  8
dimensions
 62
256
370
-1
  6
ByLayer
100
AcDbDimension
 10
21.0
 20
-5.0
 30
0.0
 11
26.0000000000000036
 21
-3.875
 31
0.0
 70
0
 71
5
 72
0
 41
1.0
 42
0.0
  1

  3
Standard
100
AcDbAlignedDimension
 13
31.0
 23
5.3000000000000007
 33
0.0
 14
21.0000000000000071
 24
6.0000000000000142
 34
0.0
 50
0.0
100
AcDbRotatedDimension
  0
DIMENSION
  5
DC
100
AcDbEntity
  8
dimensions
 62
256
370
-1
  6
ByLayer
100
AcDbDimension
 10
29.0
 20
6.0
 30
0.0
 11
29.0
 21
7.5000000000000009
 31
0.0
 70
0
 71
5
 72
0
 41
1.0
 42
0.0
  1

  3
Standard
100
AcDbAlignedDimension
 13
31.0
 23
5.3000000000000007
 33
0.0
 14
24.3900000000000006
 24
6.0000000000000009
 34
0.0
 50
90.0
100
AcDbRotatedDimension
  0
DIMENSION
  5
DD
100
AcDbEntity
  8
dimensions
 62
256
370
-1
  6
ByLayer
100
AcDbDimension
 10
27.0
 20
7.7000000000000179
 30
0.0
 11
27.0
 21
11.0
 31
0.0
 70
0
 71
5
 72
0
 41
1.0
 42
0.0
  1

  3
Standard
100
AcDbAlignedDimension
 13
31.0
 23
5.3000000000000007
 33
0.0
 14
24.3900000000000006
 24
7.7000000000000179
 34
0.0
 50
90.0
100
AcDbRotatedDimension
  0
DIMENSION
  5
DE
100
AcDbEntity
  8
dimensions
 62
256
370
-1
  6
ByLayer
100
AcDbDimension
 10
24.0
 20
1.5000000000000002
 30
0.0
 11
27.7000000000000028
 21
2.625
 31
0.0
 70
0
 71
5
 72
0
 41
1.0
 42
0.0
  1

  3
Standard
100
AcDbAlignedDimension
 13
31.0
 23
5.3000000000000007
 33
0.0
 14
24.4000000000000057
 24
6.0000000000000142
 34
0.0
 50
0.0
100
AcDbRotatedDimension
  0
DIMENSION
  5
DF
100
AcDbEntity
  8
dimensions
 62
256
370
-1
  6
ByLayer
100
AcDbDimension
 10
48.0
 20
3.7999999999999989
 30
0.0
 11
46.875
 21
4.5499999999999998
 31
0.0
 70
0
 71
5
 72
1
 41
1.0
 42
0.0
  1

  3
Standard
100
AcDbAlignedDimension
 13
35.1100000000000065
 23
5.3000000000000007
 33
0.0
 14
35.8000000000000043
 24
3.8000000000000003
 34
0.0
 50
90.0
100
AcDbRotatedDimension
  0
DIMENSION
  5
E0
100
AcDbEntity
  8
dimensions
 62
256
370
-1
  6
ByLayer
100
AcDbDimension
 10
33.1000000000000014
 20
2.0
 30
0.0
 11
32.0499999999999972
 21
3.125
 31
0.0
 70
0
 71
5
 72
1
 41
1.0
 42
0.0
  1

  3
Standard
100
AcDbAlignedDimension
 13
31.0
 23
4.8000000000000007
 33
0.0
 14
33.1000000000000014
 24
4.7999999999999998
 34
0.0
 50
0.0
100
AcDbRotatedDimension
  0
DIMENSION
  5
E1
100
AcDbEntity
  8
dimensions
 62
256
370
-1
  6
ByLayer
100
AcDbDimension
 10
34.6099999999999994
 20
-2.0
 30
0.0
 11
32.8049999999999997
 21
-0.875
 31
0.0
 70
0
 71
5
 72
1
 41
1.0
 42
0.0
  1

  3
Standard
100
AcDbAlignedDimension
 13
31.0
 23
4.7999999999999998
 33
0.0
 14
34.6099999999999994
 24
4.7999999999999998
 34
0.0
 50
0.0
100
AcDbRotatedDimension
  0
DIMENSION
  5
E2
100
AcDbEntity
  8
dimensions
 62
256
370
-1
  6
ByLayer
100
AcDbDimension
 10
36.2999999999999972
 20
-5.0000000000000009
 30
0.0
 11
33.6499999999999986
 21
-3.8750000000000009
 31
0.0
 70
0
 71
5
 72
1
 41
1.0
 42
0.0
  1

  3
Standard
100
AcDbAlignedDimension
 13
31.0
 23
4.7999999999999998
 33
0.0
 14
36.2999999999999972
 24
3.2999999999999998
 34
0.0
 50
0.0
100
AcDbRotatedDimension
  0
DIMENSION
  5
E3
100
AcDbEntity
  8
dimensions
 62
256
370
-1
  6
ByLayer
100
AcDbDimension
 10
37.9900000000000091
 20
-8.0
 30
0.0
 11
34.4950000000000045
 21
-6.875
 31
0.0
 70
0
 71
5
 72
1
 41
1.0
 42
0.0
  1

  3
Standard
100
AcDbAlignedDimension
 13
31.0
 23
4.8000000000000007
 33
0.0
 14
37.9900000000000091
 24
4.8000000000000007
 34
0.0
 50
0.0
100
AcDbRotatedDimension
  0
DIMENSION
  5
E4
100
AcDbEntity
  8
dimensions
 62
256
370
-1
  6
ByLayer
100
AcDbDimension
 10
39.5000000000000071
 20
-11.0
 30
0.0
 11
35.25
 21
-9.875
 31
0.0
 70
0
 71
5
 72
1
 41
1.0
 42
0.0
  1

  3
Standard
100
AcDbAlignedDimension
 13
31.0
 23
4.8000000000000007
 33
0.0
 14
39.5000000000000071
 24
4.8000000000000007
 34
0.0
 50
0.0
100
AcDbRotatedDimension
  0
DIMENSION
  5
E5
100
AcDbEntity
  8
dimensions
 62
256
370
-1
  6
ByLayer
100
AcDbDimension
 10
41.6000000000000014
 20
-14.0
 30
0.0
 11
36.2999999999999972
 21
-12.875
 31
0.0
 70
0
 71
5
 72
1
 41
1.0
 42
0.0
  1

  3
Standard
100
AcDbAlignedDimension
 13
31.0
 23
4.8000000000000007
 33
0.0
 14
41.6000000000000014
 24
4.8000000000000007
 34
0.0
 50
0.0
100
AcDbRotatedDimension
  0
MTEXT
  5
E6
100
AcDbEntity
100
AcDbMText
  8
title_block
 62
256
370
-1
  6
ByLayer
 10
-66.2712132512616137
 20
24.1416562558167307
 30
0.0
 40
1.0
 41
100.0
 71
1
 72
0
  3
/*\P    This file is part of the DodoHand project. This project aims to create \P    an open implementation of the DataHand keyboard, capable of being created\P    with commercial 3D printing services.\P\P    Copyright (C) 2013 Scott Fohey\P\P    Thi
  3
s program is free software: you can redistribute it and/or modify\P    it under the terms of the GNU General Public License as published by\P    the Free Software Foundation, either version 3 of the License, or\P    (at your option) any later version
  3
.\P\P    This program is distributed in the hope that it will be useful,\P    but WITHOUT ANY WARRANTY; without even the implied warranty of\P    MERCHANTABILITY or FITNESS FOR A PARTICULAR PURPOSE.  See the\P    GNU General Public License for more d
  1
etails.\P\P    You should have received a copy of the GNU General Public License\P    along with this program.  If not, see <http://www.gnu.org/licenses/>.\P*/\P
  7
normallatin1
 50
0.0
 73
1
 44
1.0
  0
ENDSEC
  0
SECTION
  2
OBJECTS
  0
DICTIONARY
  5
C
100
AcDbDictionary
280
0
281
1
  3
ACAD_GROUP
350
D
  3
ACAD_LAYOUT
350
1A
  3
ACAD_MLINESTYLE
350
17
  3
ACAD_PLOTSETTINGS
350
19
  3
ACAD_PLOTSTYLENAME
350
E
  3
AcDbVariableDictionary
350
E7
  0
DICTIONARY
  5
D
100
AcDbDictionary
280
0
281
1
  0
ACDBDICTIONARYWDFLT
  5
E
100
AcDbDictionary
281
1
  3
Normal
350
F
100
AcDbDictionaryWithDefault
340
F
  0
ACDBPLACEHOLDER
  5
F
  0
DICTIONARY
  5
17
100
AcDbDictionary
280
0
281
1
  3
Standard
350
18
  0
MLINESTYLE
  5
18
100
AcDbMlineStyle
  2
STANDARD
 70
0
  3

 62
256
 51
90.0
 52
90.0
 71
2
 49
0.5
 62
256
  6
BYLAYER
 49
-0.5
 62
256
  6
BYLAYER
  0
DICTIONARY
  5
19
100
AcDbDictionary
280
0
281
1
  0
DICTIONARY
  5
1A
100
AcDbDictionary
281
1
  3
Layout1
350
1E
  3
Layout2
350
26
  3
Model
350
22
  0
LAYOUT
  5
1E
100
AcDbPlotSettings
  1

  2
C:\Program Files\AutoCAD 2002\plotters\DWF ePlot (optimized for plotting).pc3
  4

  6

 40
0.0
 41
0.0
 42
0.0
 43
0.0
 44
0.0
 45
0.0
 46
0.0
 47
0.0
 48
0.0
 49
0.0
140
0.0
141
0.0
142
1.0
143
1.0
 70
688
 72
0
 73
0
 74
5
  7

 75
16
147
1.0
148
0.0
149
0.0
100
AcDbLayout
  1
Layout1
 70
1
 71
1
 10
0.0
 20
0.0
 11
420.0
 21
297.0
 12
0.0
 22
0.0
 32
0.0
 14
100000000000000000000.0
 24
100000000000000000000.0
 34
100000000000000000000.0
 15
-100000000000000000000.0
 25
-100000000000000000000.0
 35
-100000000000000000000.0
146
0.0
 13
0.0
 23
0.0
 33
0.0
 16
1.0
 26
0.0
 36
0.0
 17
0.0
 27
1.0
 37
0.0
 76
0
330
1B
  0
LAYOUT
  5
22
100
AcDbPlotSettings
  1

  2
C:\Program Files\AutoCAD 2002\plotters\DWF ePlot (optimized for plotting).pc3
  4

  6

 40
0.0
 41
0.0
 42
0.0
 43
0.0
 44
0.0
 45
0.0
 46
0.0
 47
0.0
 48
0.0
 49
0.0
140
0.0
141
0.0
142
1.0
143
1.0
 70
1712
 72
0
 73
0
 74
0
  7

 75
0
147
1.0
148
0.0
149
0.0
100
AcDbLayout
  1
Model
 70
1
 71
0
 10
0.0
 20
0.0
 11
12.0
 21
9.0
 12
0.0
 22
0.0
 32
0.0
 14
0.0
 24
0.0
 34
0.0
 15
0.0
 25
0.0
 35
0.0
146
0.0
 13
0.0
 23
0.0
 33
0.0
 16
1.0
 26
0.0
 36
0.0
 17
0.0
 27
1.0
 37
0.0
 76
0
330
1F
  0
LAYOUT
  5
26
100
AcDbPlotSettings
  1

  2
C:\Program Files\AutoCAD 2002\plotters\DWF ePlot (optimized for plotting).pc3
  4

  6

 40
0.0
 41
0.0
 42
0.0
 43
0.0
 44
0.0
 45
0.0
 46
0.0
 47
0.0
 48
0.0
 49
0.0
140
0.0
141
0.0
142
1.0
143
1.0
 70
688
 72
0
 73
0
 74
5
  7

 75
16
147
1.0
148
0.0
149
0.0
100
AcDbLayout
  1
Layout2
 70
1
 71
2
 10
0.0
 20
0.0
 11
12.0
 21
9.0
 12
0.0
 22
0.0
 32
0.0
 14
0.0
 24
0.0
 34
0.0
 15
0.0
 25
0.0
 35
0.0
146
0.0
 13
0.0
 23
0.0
 33
0.0
 16
1.0
 26
0.0
 36
0.0
 17
0.0
 27
1.0
 37
0.0
 76
0
330
23
  0
DICTIONARY
  5
E7
100
AcDbDictionary
281
1
  3
DIMASSOC
350
E9
  3
HIDETEXT
350
E8
  0
DICTIONARYVAR
  5
E8
100
DictionaryVariables
280
0
  1
2
  0
DICTIONARYVAR
  5
E9
100
DictionaryVariables
280
0
  1
1
  0
ENDSEC
  0
EOF
